<?xml version="1.0" encoding="UTF-8" standalone="no"?>
<!-- Created with Inkscape (http://www.inkscape.org/) -->

<svg
   version="1.1"
   id="svg1"
   width="1008"
   height="761"
   viewBox="0 0 1008 761"
   sodipodi:docname="base-version.svg"
   inkscape:version="1.3.2 (091e20ef0f, 2023-11-25, custom)"
   xml:space="preserve"
   xmlns:inkscape="http://www.inkscape.org/namespaces/inkscape"
   xmlns:sodipodi="http://sodipodi.sourceforge.net/DTD/sodipodi-0.dtd"
   xmlns:xlink="http://www.w3.org/1999/xlink"
   xmlns="http://www.w3.org/2000/svg"
   xmlns:svg="http://www.w3.org/2000/svg"><defs
     id="defs1" /><sodipodi:namedview
     id="namedview1"
     pagecolor="#505050"
     bordercolor="#ffffff"
     borderopacity="1"
     inkscape:showpageshadow="0"
     inkscape:pageopacity="0"
     inkscape:pagecheckerboard="1"
     inkscape:deskcolor="#505050"
     inkscape:zoom="7.5703322"
     inkscape:cx="298.4017"
     inkscape:cy="649.90543"
     inkscape:window-width="1920"
     inkscape:window-height="1008"
     inkscape:window-x="0"
     inkscape:window-y="0"
     inkscape:window-maximized="1"
     inkscape:current-layer="svg1" /><g
     inkscape:groupmode="layer"
     id="layer1"
     inkscape:label="top_circle"
     style="display:inline"
     transform="translate(0,-6.9076035)"><circle
       style="display:inline;fill:#dfcc5c;fill-opacity:1;stroke-width:1.09853"
       id="path15-7"
       cx="499.00003"
       cy="358.50378"
       inkscape:label="outside-circle"
       r="340" /><circle
       style="display:inline;fill:#28285b;fill-opacity:1;stroke-width:1.04258"
       id="path15"
       cx="499.00003"
       cy="358.50378"
       r="322.67911"
       inkscape:label="inside_circle" /><g
       inkscape:groupmode="layer"
       id="layer4"
       inkscape:label="ribbon-text"
       transform="translate(0,6.9076035)"><text
         xml:space="preserve"
         style="font-style:normal;font-variant:normal;font-weight:bold;font-stretch:normal;font-size:58.6667px;font-family:'Liberation Serif';-inkscape-font-specification:'Liberation Serif Bold';fill:#0f0f85;fill-opacity:1;stroke-width:1.30112"
         x="478.16147"
         y="119.01152"
         id="text1"><tspan
           sodipodi:role="line"
           id="tspan1"
           x="478.16147"
           y="119.01152"
           style="font-size:58.6667px;fill:#ffffff;stroke-width:1.30112">of</tspan></text><text
         xml:space="preserve"
         style="font-style:normal;font-variant:normal;font-weight:bold;font-stretch:normal;font-size:62.4541px;font-family:'Liberation Serif';-inkscape-font-specification:'Liberation Serif Bold';fill:#ffffff;fill-opacity:1;stroke-width:1.30112"
         x="-14.279875"
         y="389.0481"
         id="text2"
         transform="rotate(-45)"><tspan
           sodipodi:role="line"
           id="tspan2"
           x="-14.279875"
           y="389.0481"
           style="stroke-width:1.30112">Century</tspan></text><text
         xml:space="preserve"
         style="font-style:normal;font-variant:normal;font-weight:bold;font-stretch:normal;font-size:62.4541px;font-family:'Liberation Serif';-inkscape-font-specification:'Liberation Serif Bold';fill:#ffffff;fill-opacity:1;stroke-width:1.30112"
         x="510.37961"
         y="-321.64536"
         id="text3"
         transform="rotate(45)"><tspan
           sodipodi:role="line"
           id="tspan3"
           x="510.37961"
           y="-321.64536"
           style="stroke-width:1.30112">Service</tspan></text><text
         xml:space="preserve"
         style="font-style:normal;font-variant:normal;font-weight:bold;font-stretch:normal;font-size:62.4541px;font-family:'Liberation Serif';-inkscape-font-specification:'Liberation Serif Bold';fill:#ffffff;fill-opacity:1;stroke-width:1.30112"
         x="457.70123"
         y="152.4969"
         id="text4"
         transform="rotate(45)"><tspan
           sodipodi:role="line"
           id="tspan4"
           x="457.70123"
           y="152.4969"
           style="stroke-width:1.30112">Alhambra</tspan></text><text
         xml:space="preserve"
         style="font-style:normal;font-variant:normal;font-weight:bold;font-stretch:normal;font-size:62.4541px;font-family:'Liberation Serif';-inkscape-font-specification:'Liberation Serif Bold';fill:#ffffff;fill-opacity:1;stroke-width:1.30112"
         x="46.425037"
         y="863.2027"
         id="text5"
         transform="rotate(-45)"><tspan
           sodipodi:role="line"
           id="tspan5"
           x="46.425037"
           y="863.2027"
           style="stroke-width:1.30112">2431</tspan></text></g></g><g
     id="g71"
     transform="matrix(5.1127394,0,0,5.1127394,138.61428,6.083378)"
     style="display:inline"
     inkscape:label="kofc_crest"><path
       style="display:inline;fill:#dfcc5c;fill-opacity:1"
       d="M 46.233085,97.133494 24.53793,75.383207 l 11.12933,-0.06748 12.895084,0.416133 -0.04499,-3.664378 -0.04499,-3.529415 -11.388602,-0.07581 H 24.751949 l 7.682059,-7.828217 9.034021,-9.148368 V 51.224671 50.96367 l -2.99565,-3.004173 -1.964515,-2.274957 4.899324,-0.03304 h 6.261082 l 10.578742,-10.756206 9.526311,-9.499934 0.02822,5.786286 -0.01606,7.203373 2.406365,-2.109625 1.459054,-0.300566 1.10009,0.936783 1.943077,0.825445 0.536899,-6.194343 -0.624197,-6.862372 10.394465,9.787573 10.489897,11.044102 6.256297,-0.151101 4.73733,0.103385 v 0.204764 0.204765 l -2.0763,2.20197 -2.39872,2.412883 -0.83776,0.810696 0.76167,0.635471 8.66112,8.667381 7.57071,8.019082 -10.75718,-0.159054 -12.999843,0.302203 -0.06362,3.458212 0.283423,3.22943 12.45495,-0.03901 10.7734,0.05604 -21.108639,21.664361 -21.91243,21.977486 0.10352,-5.66451 -0.548603,-7.12779 -1.605042,1.44373 -1.318744,0.88704 -0.98473,-0.83933 -2.519637,-1.81217 -0.203513,7.05798 0.03479,5.94108 z M 92.933336,93.333333 105.46454,80.8 h -5.2656 -5.265604 v 2.50337 2.503371 l -7.333333,7.468921 -7.333334,7.468918 v 2.56105 2.56104 h 0.06773 0.06773 z m -20.889421,5.466108 0.08942,-1.733893 -0.761864,5.59e-4 -0.761864,5.6e-4 0.161864,0.42181 0.161864,0.42181 v 1.311523 1.31152 h 0.510579 0.51058 z m 2.841301,-3.132774 -0.08521,-0.6 -3.4,-0.07463 -3.4,-0.07463 v 0.674634 0.674634 h 3.485214 3.485214 z m -6.885214,-1.753816 v -0.753815 l -0.751951,0.110363 -0.751951,0.110363 -0.85406,-0.718644 -0.85406,-0.718644 -0.300604,-0.561684 -0.300604,-0.561684 1.927738,-1.752878 1.927737,-1.752878 -0.08779,-0.856363 -0.08779,-0.856362 -2.177352,1.866354 -2.177352,1.866354 H 63.006133 62.5003 L 61.965476,88.6 l -0.534824,-0.733333 -0.188038,-0.504234 -0.188039,-0.504234 0.160887,-0.50691 0.160887,-0.50691 0.48753,0.154735 0.487529,0.154736 0.290964,-1.356717 0.290963,-1.356718 v -0.253541 -0.253541 h -0.392866 -0.392866 l -1.207134,0.586471 -1.207134,0.586471 v 0.184999 0.184999 l 0.38635,0.148256 0.38635,0.148256 -0.413255,0.828388 -0.413254,0.828388 0.16513,0.88022 0.16513,0.88022 0.820865,1.23928 0.820864,1.239279 -0.278551,0.799053 -0.278552,0.799054 h 1.020143 1.020143 l 0.365985,0.444459 0.365986,0.44446 1.04001,0.75554 1.04001,0.755541 h 1.026657 1.026656 z m 2.133334,-7.646184 V 78.133333 H 69.466669 68.800002 V 86.266667 94.4 h 0.666667 0.666667 z M 72.203913,86.2 l 0.07058,-8.066667 h -0.80391 -0.80391 v 7.955556 7.955555 l 0.189026,0.189027 0.189027,0.189026 0.544307,-0.07792 0.544307,-0.07792 z m 1.929423,0.06667 V 78.133333 H 73.466669 72.800002 V 86.266667 94.4 h 0.666667 0.666667 z m 8,6.246468 V 92.22627 l -2.466667,-2.335199 -2.466666,-2.335198 -1.133334,-1.008967 -1.133333,-1.008966 0.01849,1.164363 0.01849,1.164364 3.114839,2.454213 3.11484,2.454212 0.466666,0.01245 0.466667,0.01245 z m -4.4,-12.078818 2.133333,-1.873514 0.585177,-0.51296 0.585177,-0.512959 0.789839,0.632558 L 82.6167,78.8 l 0.133353,0.466667 0.133353,0.466666 h 0.529768 0.529768 L 84.095704,79.335242 84.248466,78.93715 83.777403,78.468575 83.306341,78 l -0.479503,-0.764142 -0.479504,-0.764142 0.425851,-0.42585 0.42585,-0.425851 1.059437,0.07649 1.059437,0.07649 0.67438,-0.67438 0.674381,-0.674381 v -0.776158 -0.776159 l -0.552689,-0.702629 -0.552688,-0.702629 h -1.16129 -1.161291 l -0.573747,0.729401 -0.573747,0.729401 0.108268,0.737677 0.108268,0.737678 -0.490003,0.443447 -0.490003,0.443446 -0.614393,-0.577192 -0.614393,-0.577192 H 79.813917 79.528873 L 79.389403,73.6 79.249933,73.066667 h -0.433334 -0.433335 l -0.171679,0.447388 -0.171679,0.447388 0.580048,0.385138 0.580049,0.385137 v 0.334823 0.334822 l 0.4,0.33197 0.4,0.331971 v 0.195591 0.195591 l -2.533334,2.196351 -2.533333,2.196351 v 0.924477 0.924477 l 0.333333,-0.195156 0.333333,-0.195156 z m 6.053333,-6.08765 -0.32,-0.32 v -0.447348 -0.447348 l 0.387204,-0.321351 0.387203,-0.32135 0.54613,0.173335 0.54613,0.173335 v 0.595363 0.595364 l -0.32,0.32 -0.32,0.32 h -0.293333 -0.293334 z m -17.300341,4.670651 -1.552993,-1.396526 -0.266666,-0.002 -0.266667,-0.002 -0.453494,0.62432 -0.453495,0.624319 2.186828,1.739876 2.186828,1.739875 0.08633,-0.965653 0.08633,-0.965652 z m -6.314935,0.555421 0.57139,-0.153313 0.152117,-0.760583 0.152117,-0.760583 0.843886,0.242024 0.843887,0.242023 0.481213,-0.257537 0.481213,-0.257537 0.173424,-0.546413 0.173425,-0.546413 -0.263359,-0.320537 -0.263359,-0.320537 -0.09201,-0.515613 -0.09201,-0.515613 0.661997,-0.161974 0.661996,-0.161973 0.07454,-0.971362 0.07454,-0.971362 -0.285966,-0.176737 -0.285966,-0.176736 -0.754615,0.312572 -0.754616,0.312572 -0.149221,0.746107 -0.149221,0.746107 -0.450976,0.173056 -0.450976,0.173055 L 60.894578,74.532461 60.264304,74.119489 58.827696,72.659744 57.391089,71.2 h -0.398208 -0.398207 l -0.45339,0.691961 -0.453391,0.691961 0.602538,0.641372 0.602538,0.641373 0.420183,0.0029 0.420183,0.0029 1.466667,1.300136 1.466667,1.300135 L 60.158672,77.03641 59.650675,77.6 h -0.492003 -0.492003 v 1.066667 1.066666 l 0.466666,-0.0036 0.466667,-0.0036 z M 74.933336,76.666667 V 76 h -3.466667 -3.466667 v 0.666667 0.666666 h 3.466667 3.466667 z m -2.717433,-1.933334 -0.08987,-0.466666 H 71.466669 70.807306 L 70.717435,74.733333 70.627563,75.2 h 0.839106 0.839106 z M 72.266669,72.4 v -1.2 l 0.333333,0.0094 0.333334,0.0094 1.733333,0.381264 1.733334,0.381264 0.252311,0.0094 L 76.904625,72 76.032598,71.100297 75.160571,70.200593 73.71362,69.468503 72.266669,68.736412 v -1.381539 -1.38154 l 0.258809,-0.258809 0.258809,-0.258809 -0.642177,-0.794524 -0.642178,-0.794524 -0.728628,0.718057 -0.728628,0.718057 0.327453,0.394558 0.327454,0.394557 -0.08212,1.209434 -0.08212,1.209433 -1.084101,-0.486968 -1.0841,-0.486968 -0.950416,-0.834476 -0.950416,-0.834476 -0.264064,0.332729 -0.264065,0.332729 -0.330805,1.026378 -0.330805,1.026377 0.106176,1.667468 0.106176,1.667468 0.480403,0.733187 0.480402,0.733186 0.709474,-0.679552 0.709474,-0.679553 0.991435,-0.414146 L 69.849539,71.2 h 0.408565 0.408565 v 1.2 1.2 h 0.8 0.8 z M 47.99952,60.866667 47.999039,58.533333 46.59952,56.98382 45.200001,55.434306 41.336784,59.317153 37.473566,63.2 h 5.263218 5.263218 z M 62.770395,45.056466 c 0.584591,-1.324374 -0.127701,-2.638705 -0.161322,-3.958904 l -0.07573,-2.973738 -3.462819,3.471422 -4.17481,4.015757 3.776438,0.42821 c 1.367582,-0.455151 2.580914,0.418487 4.098243,-0.982747 z"
       id="path73"
       sodipodi:nodetypes="ccccccccccccccccccccccccccccccccccccccccccccccccccccccccccccccccccccccccccccccccccccccccccccccccccccccccccccccccccccccccccccccccccccccccccccccccccccccccccccccccccccccccccccccccccccccccccccccccccccccccccccccccccccccccccccccccccccccccccccccccccccccccccccccccccccccccccccccccccccccccccccccccccccccccccccccccccccccccccccccccccccccccccccccccccccccccccccccccccccccccccccccccccccccccccccccccccccccccsccccc" /><path
       style="display:inline;fill:#8d2c26;fill-opacity:1"
       d="m 36.628864,80.565553 26.102199,26.019317 0.467238,-5.87788 -14.637026,-14.907849 0.141562,-5.315057 z"
       id="path75" /><path
       style="display:inline;fill:#8d2c26;fill-opacity:1"
       d="m 80.390141,37.712409 8.065951,7.984702 -7.507091,-0.05728 -1.283877,-1.772467 0.217029,-6.691309 z"
       id="path76" /><path
       style="display:inline;fill:#8d2c26;fill-opacity:1"
       d="m 98.011053,54.899629 8.182697,8.751624 -11.882991,-0.112906 0.137793,-5.417498 z"
       id="path77" /><path
       style="display:inline;fill:#ffffff;fill-opacity:1"
       d="m 53.69766,64.253751 18.271885,-1.571836 16.276497,5.35279 -3.342013,22.174238 -2.713668,3.092407 -10.63783,10.37853 -19.452796,-19.074731 z"
       id="path78" /><path
       style="display:inline;fill:#ffffff;fill-opacity:1"
       d="M 80.107602,106.50056 106.44381,80.499672 94.440302,80.467898 94.172755,85.896813 79.81666,100.4146 Z"
       id="path79" /><path
       style="display:inline;fill:#ffffff;fill-opacity:1"
       d="m 63.114734,37.107278 0.11098,6.968709 -1.415067,1.656922 -7.172431,0.01192 z"
       id="path80" /><path
       style="display:inline;fill:#ffffff;fill-opacity:1"
       d="m 45.241739,55.103999 3.145353,3.348557 -0.0035,5.313652 -11.561978,-0.190872 z"
       id="path81" /><path
       style="display:inline;fill:#28285b;fill-opacity:1"
       d="m 74.400002,113.47518 v -6.65696 l -1.467052,1.44883 -1.467052,1.44883 -1.594839,-1.5782 -1.594839,-1.5782 -0.07144,6.58777 -0.07144,6.58777 L 45.73393,97.334178 23.334525,74.933333 H 35.667263 48.000002 V 72 69.066667 H 35.668183 23.336365 l 8.731818,-8.734826 8.731818,-8.734827 v -0.269938 -0.269939 l -2.8,-2.79047 -2.8,-2.790471 v -0.204765 -0.204764 h 6.065417 6.065417 l 10.467917,-10.465401 10.467917,-10.465401 0.01258,6.798734 0.01258,6.798734 1.565147,-1.703028 1.565147,-1.703028 1.479215,1.569695 1.479216,1.569695 0.0097,-6.79875 0.0097,-6.79875 10.601236,10.59875 10.601235,10.59875 h 6.065425 6.06544 v 0.204547 0.204548 l -2.93488,2.925774 -2.93487,2.925773 8.86671,8.869679 8.86672,8.869679 H 107.26518 94.933336 v 2.93067 2.93067 l 12.267344,0.06933 12.26734,0.06933 -22.534011,22.532741 -22.534007,22.532742 z m -8.861519,-9.9384 -1.938481,-1.9528 -0.133333,3.21025 -0.133334,3.21024 L 49.334287,94.002236 35.335239,80 h 6.332381 6.332382 V 78 76 H 36.867309 25.734616 l 20.79936,20.800929 20.79936,20.800931 0.07181,-6.05614 0.07182,-6.05615 z M 96.332691,96.867316 116.8,76.401299 V 76.200649 76 H 105.86667 94.933336 v 2 2 h 6.332384 6.33238 l -13.999049,14.001742 -13.999048,14.001738 -0.07529,-3.25317 -0.07529,-3.25317 -1.991379,1.97809 -1.99138,1.97809 v 5.94001 5.94 h 0.199355 0.199355 z M 82.748812,96.835499 93.86667,85.670998 V 71.882426 58.093854 l 5.8,-5.913594 5.8,-5.913593 -12.4,-0.08663 L 80.666669,46.093405 76.136792,41.046702 71.606915,36 h -0.148652 -0.148651 l -4.594186,5.066667 -4.594186,5.066666 H 49.860621 37.600001 v 0.164268 0.164268 l 5.733334,5.853792 5.733333,5.853792 V 71.950217 85.73098 L 60.198811,96.86549 71.330955,108 h 0.149999 0.15 z M 61.255569,94.978536 51.200002,84.890406 V 73.378536 61.866667 H 71.466669 91.733336 V 73.295622 84.724578 L 81.707801,94.895622 71.682267,105.06667 H 71.496701 71.311135 Z M 72.003644,99.4 l 0.0036,-1.133333 0.160794,-0.6 0.160793,-0.6 h -0.865993 -0.865993 l 0.16529,1 0.16529,1 0.0029,0.733333 0.0029,0.73333 h 0.533333 0.533333 z m 2.880738,-3.733333 0.08438,-0.733334 h -3.484379 -3.48438 v 0.622223 0.622222 l 0.185566,0.185566 0.185567,0.185566 L 71.58557,96.47445 74.800002,96.4 Z m -6.88438,-1.784917 v -0.722714 l -0.751951,0.110363 -0.751951,0.110363 -0.85406,-0.718644 -0.85406,-0.718644 -0.300604,-0.561684 -0.300604,-0.561684 1.927738,-1.752878 1.927737,-1.752878 -0.08779,-0.84611 -0.08779,-0.84611 -2.226272,1.856102 -2.226272,1.856101 -0.307062,-0.0041 -0.307061,-0.0041 -0.282124,-0.195917 -0.282124,-0.195917 -0.451209,-0.659335 -0.45121,-0.659335 v -0.891968 -0.891968 l 0.511827,0.162447 0.511826,0.162447 0.13536,-0.47781 0.13536,-0.477811 0.176253,-1.133333 0.176253,-1.133334 h -0.472579 -0.47258 l -1.15086,0.557122 -1.15086,0.557122 v 0.214348 0.214348 l 0.38635,0.148256 0.38635,0.148256 -0.413255,0.828388 -0.413254,0.828388 0.16513,0.88022 0.16513,0.88022 0.789711,1.192246 0.789711,1.192245 -0.242655,0.846087 -0.242655,0.846088 h 0.940466 0.940465 l 1.215185,1.069648 1.215185,1.069649 0.825735,0.217625 0.825735,0.217626 0.466667,-0.118376 L 68,94.604429 Z m 2.133334,-7.632796 v -8.151046 l -0.733334,0.08438 -0.733333,0.08438 -0.07086,7.730087 -0.07086,7.730087 0.129158,0.336579 L 68.783264,94.4 H 69.4583 70.133336 Z M 72.203913,86.2 l 0.07058,-8.066667 h -0.80391 -0.80391 v 8.151046 8.151046 l 0.733333,-0.08438 0.733334,-0.08438 z m 1.929423,0.06667 V 78.133333 H 73.466669 72.800002 V 86.266667 94.4 h 0.666667 0.666667 z m 8,6.217238 V 92.16781 L 80.466669,90.603196 78.800003,89.038582 76.903189,87.319291 75.006375,85.6 h -0.169853 -0.169853 v 0.931276 0.931276 l 0.733333,0.641978 0.733334,0.641977 2.533333,2.014127 2.533334,2.014127 0.466666,0.01262 0.466667,0.01262 z m -4.603496,-11.865646 2.336829,-2.048407 0.585177,-0.517484 0.585177,-0.517484 0.789839,0.632558 L 82.6167,78.8 l 0.133353,0.466667 0.133353,0.466666 h 0.529768 0.529768 L 84.117814,79.277626 84.292685,78.821918 83.795832,78.410959 83.298979,78 l -0.475822,-0.764142 -0.475823,-0.764142 0.425851,-0.42585 0.42585,-0.425851 1.059437,0.07649 1.059437,0.07649 0.67438,-0.67438 0.674381,-0.674381 v -0.79725 -0.797251 L 86.034561,72.09487 85.402452,71.36 h -1.002449 -1.002449 l -0.6561,0.762761 -0.656099,0.762761 0.1112,0.757651 0.111199,0.757651 -0.475065,0.429928 -0.475065,0.429927 L 80.559058,74.63034 79.760493,74 79.595611,73.533333 79.430729,73.066667 h -0.523732 -0.523733 l -0.150089,0.391125 -0.150089,0.391126 0.958458,1.169672 0.958459,1.169672 v 0.129484 0.129483 l -2.666667,2.326491 -2.666667,2.326491 v 0.783228 0.783228 h 0.263171 0.26317 z m 6.403496,-6.239619 -0.466667,-0.271808 v -0.487431 -0.48743 l 0.422353,-0.350522 0.422353,-0.350522 0.444314,0.279786 0.444314,0.279785 0.08869,0.450895 0.08869,0.450895 -0.321339,0.387189 -0.321339,0.38719 -0.167348,-0.0081 -0.167348,-0.0081 z m -15.933334,6.97139 V 80.300066 L 66.216782,78.787251 64.433561,77.274437 64.225375,77.837219 64.017188,78.4 h -0.297482 -0.297482 l 0.08989,0.269667 0.08989,0.269667 2.132334,1.720093 2.132333,1.720094 0.06667,0.01024 0.06667,0.01024 z m -7.042508,-2.45985 0.02794,-0.35685 0.04062,-0.314718 0.04062,-0.314719 0.83406,0.239206 0.834061,0.239205 0.481213,-0.257537 0.481213,-0.257537 0.165133,-0.520289 0.165133,-0.520289 -0.423065,-0.818118 -0.423066,-0.818119 0.409326,-0.128542 0.409325,-0.128543 0.35584,-0.108018 0.355841,-0.108018 0.03565,-0.948173 0.03565,-0.948172 -0.263366,-0.162769 -0.263366,-0.16277 -0.938445,0.309715 -0.938445,0.309715 0.147428,0.464504 0.147428,0.464503 -0.53027,0.479888 -0.53027,0.479888 L 60.938986,74.561557 60.264304,74.119489 58.827696,72.659744 57.391089,71.2 h -0.398208 -0.398207 l -0.45339,0.691961 -0.453391,0.691961 0.602538,0.641372 0.602538,0.641373 h 0.318682 0.318682 l 1.368168,1.089351 1.368168,1.089351 V 76.502685 76.96 l -0.32,0.32 -0.32,0.32 h -0.48 -0.48 v 1.044444 1.044445 l 0.333333,0.11283 0.333333,0.112831 0.798109,-0.333759 0.798109,-0.333759 z M 74.933336,76.666667 V 76 h -3.466667 -3.466667 v 0.666667 0.666666 h 3.466667 3.466667 z m -4.84812,-1.933334 0.08521,-0.6 h -0.669475 -0.669476 l -0.172701,0.279437 -0.172702,0.279436 0.155772,0.405934 0.155771,0.405933 0.601192,-0.08537 0.601192,-0.08537 z M 72.133336,74.8 v -0.533333 l -0.733334,-0.08438 -0.733333,-0.08438 v 0.506602 0.506601 l 0.189026,0.189027 0.189027,0.189026 0.544307,-0.07792 0.544307,-0.07792 z m 2,0 v -0.666667 h -0.666667 -0.666667 v 0.488889 0.488889 l 0.177778,0.177778 0.177778,0.177778 h 0.488889 0.488889 z m -1.866667,-2.4 v -1.2 h 0.109875 0.109875 l 2.07155,0.396353 2.07155,0.396353 0.09229,-0.09229 0.09229,-0.09229 -1.10774,-1.000776 -1.10774,-1.000776 -1.165974,-0.515766 -1.165975,-0.515766 v -1.400855 -1.400855 l 0.284453,-0.284452 0.284452,-0.284453 -0.669286,-0.76888 -0.669285,-0.768881 -0.738803,0.729697 -0.738804,0.729697 0.323637,0.323636 0.323636,0.323636 V 67.12 68.266667 H 70.231479 69.796288 L 68.831479,67.690891 67.86667,67.115116 67.157196,66.463859 66.447722,65.812603 65.957196,66.56124 65.46667,67.309878 V 69.6 71.890122 l 0.490526,0.748638 0.490526,0.748637 0.709474,-0.679552 0.709474,-0.679553 0.991435,-0.414146 L 69.849539,71.2 h 0.408565 0.408565 v 1.2 1.2 h 0.8 0.8 z m 12.133334,-12.492888 -0.8,-0.366491 -0.708349,-0.715023 -0.708348,-0.715022 -0.477453,-0.988622 -0.477452,-0.988621 -0.0068,-1.874001 -0.0068,-1.874002 0.820881,-1.459332 0.820881,-1.459331 1.253047,-0.780781 1.253047,-0.780781 1.651998,-0.0178 1.651999,-0.0178 1.245661,0.479279 1.245662,0.479279 0.302407,0.364379 0.302408,0.364379 -0.856243,1.688254 -0.856244,1.688254 -0.743874,-1.6 -0.743874,-1.6 -0.320108,-0.363638 -0.320107,-0.363638 -1.193616,0.134538 -1.193615,0.134538 -0.785902,0.785902 -0.785902,0.785902 -0.24437,1.043198 -0.24437,1.043198 0.28217,1.402667 0.282169,1.402666 0.641808,0.762745 0.641807,0.762745 0.808488,0.334886 0.808487,0.334887 1.379466,-0.132549 1.379466,-0.13255 1.056837,-1.132984 1.056837,-1.132985 -0.153194,1.142149 -0.153195,1.14215 -0.502673,0.673276 -0.502674,0.673277 -0.730385,0.545311 -0.730385,0.545311 -1.919805,0.07464 -1.919804,0.07463 z M 51.200002,59.774663 v -0.225336 l 0.533333,-0.48266 0.533333,-0.48266 v -4.384172 -4.384171 l -0.551491,-0.774499 -0.551492,-0.774498 h 2.464642 2.464642 l -0.579817,0.617187 -0.579817,0.617187 v 2.107037 2.107037 l 1.466667,-1.448448 1.466667,-1.448448 v -1.275776 -1.275776 l 2.333333,0.0052 2.333333,0.0052 -1.2,0.99168 -1.2,0.99168 -1.4,1.308449 -1.4,1.30845 v 0.202379 0.20238 l 2.040834,2.625605 2.040834,2.625605 0.825833,0.722496 0.825833,0.722496 -3.007984,0.01084 L 57.050702,60 l 0.569759,-0.77064 0.569759,-0.770641 -1.561776,-2.076892 -1.561776,-2.076893 -0.07805,2.218224 -0.07805,2.218224 0.591205,0.629309 L 56.092969,60 h -2.446483 -2.446484 z m 15.218956,-2.641744 -0.914377,-0.466252 -0.536574,-0.731839 -0.536573,-0.731838 0.01951,-1.293622 0.01952,-1.293622 0.315121,-0.588809 0.315121,-0.588809 0.849648,-0.518067 0.849647,-0.518067 1.146576,-9.97e-4 1.146576,-9.97e-4 0.782244,0.404514 0.782243,0.404514 0.404514,0.782243 0.404514,0.782244 v 1.310613 1.310614 L 70.888561,56.129686 70.310455,56.864629 69.43046,57.232315 68.550465,57.6 67.9419,57.599586 67.333335,57.599171 Z m 2.511933,-0.863551 0.480215,-0.530631 0.122701,-1.276981 0.122702,-1.27698 L 69.241863,52.192388 68.827216,51.2 h -0.806759 -0.806759 l -0.436252,0.843619 -0.436252,0.843618 0.117667,1.418916 0.117668,1.418915 0.4864,0.537466 0.4864,0.537466 h 0.450673 0.450674 z m 3.694448,0.576301 0.44133,-0.487664 V 54.036287 51.714569 L 72.636,51.057284 72.20533,50.4 h 2.964003 2.964003 v 1.387453 1.387452 l -1.034548,-1.010208 -1.034547,-1.010209 -0.632119,0.08942 -0.63212,0.08942 -0.08289,1.002143 -0.08289,1.002144 0.429793,0.164927 0.429794,0.164927 0.653098,-0.613554 0.653099,-0.613554 V 54 55.559634 l -0.653099,-0.613554 -0.653098,-0.613554 -0.413569,0.158701 -0.413568,0.158701 v 0.749034 0.749035 l 0.415121,0.592668 0.415121,0.592668 H 73.84046 72.184009 Z M 55.34365,93.343653 48.000002,85.99649 V 83.398245 80.8 h -5.265603 -5.265603 l 12.53227,12.535501 12.532269,12.535499 0.07698,-2.59009 0.07698,-2.59009 z M 92.933336,93.333333 105.46454,80.8 h -5.2656 -5.265604 v 2.50337 2.503371 l -7.333333,7.468921 -7.333334,7.468918 v 2.56105 2.56104 h 0.06773 0.06773 z M 48.000002,66 V 64 H 41.669526 35.33905 L 39.939375,59.394034 44.5397,54.788068 43.131513,53.397373 41.723326,52.006678 33.729997,60.003339 25.736668,68 H 36.868335 48.000002 Z M 116.8,67.801667 v -0.198333 l -7.79498,-7.798342 -7.79498,-7.798342 -1.408201,1.390709 -1.408201,1.390709 4.600322,4.605966 L 107.59429,64 h -6.33048 -6.330474 v 2 2 H 105.86667 116.8 Z m -68.80048,-6.935 -4.81e-4,-2.333334 L 46.59952,56.98382 45.200001,55.434306 41.336784,59.317153 37.473566,63.2 h 5.263218 5.263218 z m 53.60293,-1.530879 -3.857314,-3.864212 -1.4059,1.388436 -1.4059,1.388436 V 60.724224 63.2 h 5.263214 5.26322 z m -42.871819,-18.73301 4.736038,-4.730555 v 3.552778 3.552777 L 63.68253,42.888889 63.898391,42.8 65.68253,40.845659 67.466669,38.891317 V 32.580421 26.269524 L 58.133335,35.6 48.800002,44.930476 v 0.201429 0.201428 h 2.597295 2.597296 z m 3.365326,4.103676 0.588923,-0.62688 -0.07577,-2.977731 -0.07577,-2.977731 -3.596295,3.604611 -3.596295,3.60461 h 3.083145 3.083145 z m 25.104046,0.423032 v -0.203848 l -3.466667,-3.458971 -3.466667,-3.458972 v 3.079203 3.079203 l 0.543722,0.583616 0.543721,0.583616 h 2.922945 2.922946 z m 6.933333,0.0053 v -0.198571 l -9.131884,-9.134762 -9.131884,-9.134762 h -0.201449 -0.20145 v 6.132227 6.132227 l 1.768716,1.934439 1.768716,1.93444 0.231284,0.08889 0.231284,0.08889 v -3.554617 -3.554616 l 4.732395,4.732394 4.732394,4.732394 h 2.600939 2.600939 z"
       id="path1" /></g><g
     inkscape:groupmode="layer"
     id="layer2"
     inkscape:label="ribbon"
     style="display:inline"
     transform="translate(0,17.692517)"><path
       style="display:inline;fill:#8d2c26;fill-opacity:1"
       d="m 90.15613,610.14654 100.9395,23.86486 -9.54594,28.28427 -3.00521,9.54594 8.66206,18.73833 13.96536,28.99138 -15.55635,2.47487 L 60.104091,687.75151 77.604984,674.49326 112.96033,654.5175 Z"
       id="path20" /><path
       style="display:inline;fill:#8d2c26;fill-opacity:1"
       d="m 814.50002,634.07421 104,-26.25 -4.75,11.25 -15,24.5 -5.75,11.5 55.5,30.5 -7.25,6.5 -51.25,12.5 -44.25,10.75 -41,5.75 5.5,-8 15,-32.75 3.5,-12.75 z"
       id="path19" /><path
       style="display:inline;fill:#8d2c26;fill-opacity:1"
       d="m 795.96083,583.82421 28.75,92.75 -43.75,13 -106.75001,22.25 -88.25,11.5 -80,2.75 -40.25,-1 -61.75,-3.25 -74.75,-10.25 -60.75,-12.25 -59.25,-15.25 -25.75,-9.25 31.25,-90.25 54.5,16 65.75,14.75 101.25001,15.25 70.25,2.75 97.75,-6.75 119.75,-21.25 z"
       id="path18" /><path
       style="display:inline;fill:#8d2c26;fill-opacity:1"
       d="m 187.89979,683.42826 34.02951,8.13173 -12.55114,33.76435 -5.03814,-0.97227 -13.43503,-27.13522 z"
       id="path17" /><path
       style="fill:#8d2c26;fill-opacity:1"
       d="m 822.69105,681.21078 -16.08669,38.00698 -6.54074,7.6014 -14.84924,-35.53212 z"
       id="path16" /><path
       id="path14"
       style="display:inline;fill:#dfcc5c;fill-opacity:1"
       d="m 210.30088,578.52004 c -1.1851,0.5525 -15.04688,42.6914 -15.04688,42.6914 l -0.55273,1.30274 -0.94922,1.83398 -1.19336,1.30469 -1.03906,0.68359 -1.81055,0.35352 -3.29297,-0.5293 -19.33594,-4.35351 -23.9082,-5.94336 -23.53321,-6.14453 -25.85352,-6.9375 -7.85351,-1.5918 -2.30274,-0.39453 -2.39062,0.33594 -1.3125,1.29296 -0.54883,2.12696 0.49609,2.08984 1.36524,3.06446 8.96289,14.66992 15.82227,24.46679 1.11523,2.01953 0.21289,0.60157 c 0,0 0.0178,0.55019 -0.0176,0.62109 -0.0354,0.0709 -0.5664,0.83203 -0.5664,0.83203 l -2.19727,1.63086 -43.117192,22.10742 -11.449218,6.08789 -3.734375,2.50586 -1.203125,0.90235 -0.900389,1.10351 -0.300781,1.10157 0.199219,0.97656 0.726562,1.30273 2.304688,1.12891 19.46875,5.9375 61.960941,15.78515 35.58985,7.70313 29.1289,6.04297 8.77149,1.54687 h 0.0156 l 0.59571,0.1211 4.58203,0.78906 1.40625,0.1875 0.625,-0.0625 0.59375,-0.25 0.5,-0.3125 0.47265,-0.47266 0.0273,-0.0273 c 5.62115,-10.40918 9.62922,-21.49313 13.96875,-32.5 l 0.39062,-0.89063 0.42188,-0.46874 0.625,-0.35938 1.01562,0.0625 0.625,0.15625 6.72852,1.85352 8.39648,2.65234 6.62891,1.58984 6.54102,1.41407 6.27539,1.5039 8.48632,1.76758 11.93164,2.64258 v -0.008 l 2.96485,0.84765 12.6875,2.6875 18.1875,3.375 17.625,3.4375 13.5625,2.0625 25.8125,3.1875 18.75,2.375 18.5,1.9375 15.4375,1.25 15.125,0.6875 27.9375,1.3125 30.1875,0.38281 4.35351,-0.0312 4.35352,0.0312 30.1875,-0.38281 27.9375,-1.3125 15.125,-0.6875 15.4375,-1.25 18.5,-1.9375 18.75,-2.375 25.8125,-3.1875 13.5625,-2.0625 17.625,-3.4375 18.1875,-3.375 12.6875,-2.6875 2.96484,-0.84765 v 0.008 l 11.93164,-2.64258 8.48633,-1.76758 6.27539,-1.5039 6.54102,-1.41407 6.6289,-1.58984 8.39649,-2.65234 6.72851,-1.85352 0.625,-0.15625 1.01563,-0.0625 0.625,0.35938 0.42187,0.46874 0.39063,0.89063 c 4.33953,11.00687 8.3476,22.09082 13.96875,32.5 l 0.0273,0.0273 0.47266,0.47266 0.5,0.3125 0.59375,0.25 0.625,0.0625 1.40625,-0.1875 4.58203,-0.78906 0.5957,-0.1211 h 0.0156 l 8.77148,-1.54687 29.12891,-6.04297 35.58984,-7.70313 61.96094,-15.78515 19.46875,-5.9375 2.30469,-1.12891 0.72656,-1.30273 0.19922,-0.97656 -0.30078,-1.10157 -0.90039,-1.10351 -1.20313,-0.90235 -3.73437,-2.50586 -11.44922,-6.08789 -43.11719,-22.10742 -2.19726,-1.63086 c 0,0 -0.53101,-0.76113 -0.56641,-0.83203 -0.0354,-0.0709 -0.0176,-0.62109 -0.0176,-0.62109 l 0.21289,-0.60157 1.11524,-2.01953 15.82226,-24.46679 8.96289,-14.66992 1.36524,-3.06446 0.49609,-2.08984 -0.54883,-2.12696 -1.3125,-1.29296 -2.39062,-0.33594 -2.30274,0.39453 -7.85351,1.5918 -25.85352,6.9375 -23.5332,6.14453 -23.9082,5.94336 -19.33594,4.35351 -3.29297,0.5293 -1.81055,-0.35352 -1.03906,-0.68359 -1.19336,-1.30469 -0.94922,-1.83398 -0.55273,-1.30274 c 0,0 -13.86178,-42.1389 -15.04688,-42.6914 -1.1851,-0.55251 -16.70703,4.41797 -16.70703,4.41797 l -26.33984,7.77929 0.0156,0.0527 -16.52929,4.60351 -25.51954,6.14258 -26.0625,5.25 -17.75,3.75 -11.3125,1.9375 -28.8125,5 -25.625,3.5 -15.8125,1.625 -11.0625,1.0625 -28.6875,2.1875 0.008,0.0898 -16.0293,0.92382 -17.76758,0.61914 -14.58398,0.0879 -17.41211,-0.26562 -21.20899,-1.39062 0.006,-0.0645 -28.6875,-2.1875 -11.0625,-1.0625 -15.8125,-1.625 -25.625,-3.5 -28.8125,-5 -11.3125,-1.9375 -17.75,-3.75 -26.0625,-5.25 -25.51953,-6.14258 -16.52929,-4.60351 0.0156,-0.0527 -26.33984,-7.77929 c 0,0 -15.52195,-4.97048 -16.70703,-4.41797 z m 5.83593,10.51758 c 1.2683,-0.43387 32.81641,9.79492 32.81641,9.79492 l 6.31641,2.11133 29.78515,7.68945 36.15235,8.2207 37.65234,6.98242 32.79297,4.95118 31.64258,3.44726 16.53125,1.38281 19.84375,1.1875 0.002,-0.0293 c 11.81286,0.65265 23.49919,1.51501 35.38476,1.34765 l 18.11915,-0.0898 19.9082,-0.44336 15.68945,-0.79687 0.0371,-0.0176 19.36328,-1.15821 16.53125,-1.38281 31.64258,-3.44726 32.79297,-4.95118 37.65234,-6.98242 36.15235,-8.2207 29.78515,-7.68945 6.31641,-2.11133 c 0,0 31.54811,-10.22879 32.81641,-9.79492 1.5458,0.52881 28.29559,83.82429 27.34961,84.73632 -1.00889,0.97269 -15.11524,4.74805 -15.11524,4.74805 l -27.12695,7.83203 -30.40625,7.4668 -22.05274,5.11914 0.006,0.084 -16.47656,3.05469 -22.6875,4.125 -27.5,4.875 -23.9375,3 -24.25,2.75 -19.5625,2.0625 -25.6875,1.9375 -37.625,1.25 -22.79102,0.18164 -22.79101,-0.18164 -37.625,-1.25 -25.6875,-1.9375 -19.5625,-2.0625 -24.25,-2.75 -23.9375,-3 -27.5,-4.875 -22.6875,-4.125 -16.47656,-3.05469 0.006,-0.084 -22.05274,-5.11914 -30.40625,-7.4668 -27.12695,-7.83203 c 0,0 -14.10635,-3.77536 -15.11524,-4.74805 -0.946,-0.91203 25.80379,-84.20751 27.34961,-84.73632 z m -119.02149,24.77734 1,0.0937 2.5,0.625 8.41602,2.125 26.56836,6.80078 13.77344,3.49219 13.74609,3.40234 7.51172,1.80078 5.55078,1.27735 4.82813,1.17578 4.17578,1.32031 1.66406,0.75 0.40625,0.25391 0.20704,0.1875 0.082,0.15625 0.0117,0.16015 -0.0156,0.14454 -7.55078,18.48437 -3.82031,8.96875 -0.60938,1.79688 -0.27344,1.03906 -0.14843,0.6875 -0.11719,0.82031 -0.0469,0.40625 v 0.52344 l 0.0156,0.375 0.13281,0.51172 8.44141,18.03125 3.625,6.91601 8.04297,16.48633 1.42187,3.40234 0.17969,0.60547 0.0156,0.19532 -0.10547,0.26171 -0.39453,0.26563 -0.40625,0.0898 -0.54492,0.0625 -1.19336,-0.0176 -1.32031,-0.11523 -1.8125,-0.25391 -3.80078,-0.63672 -20.17188,-3.92187 -18.32812,-4.28125 -46.84376,-10.90625 -34.15625,-9.125 -2.84375,-1.125 -0.21875,-0.3125 1.09375,-0.84375 2.0625,-1.25 2.8125,-1.625 20.90625,-11.03125 25.9375,-13.875 1.0625,-0.96875 0.59375,-0.625 c 0,0 0.4688,-0.9375 0.5,-1.0625 0.0312,-0.125 0,-1.0625 0,-1.0625 l -0.34375,-1.4375 -0.8125,-1.875 -1.46875,-2.6875 -6.9375,-10.5625 -9.15625,-14.53125 -4.03125,-5.84375 -0.71875,-1.40625 -0.3125,-1.09375 0.125,-0.75 0.3125,-0.4375 z m 813.76954,0 0.78125,0.0312 0.3125,0.4375 0.125,0.75 -0.3125,1.09375 -0.71875,1.40625 -4.03125,5.84375 -9.15625,14.53125 -6.9375,10.5625 -1.46875,2.6875 -0.8125,1.875 -0.34375,1.4375 c 0,0 -0.0312,0.9375 0,1.0625 0.0312,0.125 0.5,1.0625 0.5,1.0625 l 0.59375,0.625 1.0625,0.96875 25.9375,13.875 20.90625,11.03125 2.8125,1.625 2.0625,1.25 1.09375,0.84375 -0.21875,0.3125 -2.84375,1.125 -34.15625,9.125 -46.84375,10.90625 -18.32812,4.28125 -20.17188,3.92187 -3.80078,0.63672 -1.8125,0.25391 -1.32031,0.11523 -1.19336,0.0176 -0.54493,-0.0625 -0.40624,-0.0898 -0.39454,-0.26563 -0.10546,-0.26171 0.0156,-0.19532 0.17969,-0.60547 1.42187,-3.40234 8.04297,-16.48633 3.625,-6.91601 8.44141,-18.03125 0.13281,-0.51172 0.0156,-0.375 v -0.52344 l -0.0469,-0.40625 -0.11719,-0.82031 -0.14843,-0.6875 -0.27344,-1.03906 -0.60938,-1.79688 -3.82031,-8.96875 -7.55078,-18.48437 -0.0156,-0.14454 0.0117,-0.16015 0.082,-0.15625 0.20703,-0.1875 0.40626,-0.25391 1.66406,-0.75 4.17578,-1.32031 4.82812,-1.17578 5.55078,-1.27735 7.51172,-1.80078 13.7461,-3.40234 13.77344,-3.49219 26.56835,-6.80078 8.41602,-2.125 2.5,-0.625 z M 190.39853,685.4048 c 3.7503,-0.1542 27.55232,6.79218 28.08985,8.49024 0.50359,1.59085 -9.33327,28.54059 -11.26758,28.55859 -1.97216,0.0184 -18.30303,-35.59956 -17.29297,-36.91992 0.059,-0.0771 0.22068,-0.11861 0.4707,-0.12891 z m 627.20313,0 c 0.25002,0.0103 0.41175,0.0518 0.4707,0.12891 1.01006,1.32036 -15.32081,36.93832 -17.29297,36.91992 -1.93431,-0.018 -11.77117,-26.96774 -11.26758,-28.55859 0.53753,-1.69806 24.33955,-8.64444 28.08985,-8.49024 z"
       sodipodi:nodetypes="sccccccccccccccccccccccscccccccccccccccccccccccccccccccccccccccccccccccccccccccccccccccccccccccccccccccccccccccccccccccccccccccsccccccccccccccccccccccsccccccccccccccccccccccccccccccccsscccccccccccccccccccccccsscccccccccccccccccccccccccccssccccccccccccccccccccccccccccccccccccccccccccccccccccccsccccccccccccccccccccccccscccccccccccccccccccccccccccccccccccccccccccccccccccccccssscscsss" /><path
       style="font-weight:bold;font-size:48px;font-family:'Liberation Serif';-inkscape-font-specification:'Liberation Serif Bold';fill:#ffffff"
       d="m 220.77807,342.72494 3.96326,0.97162 10.32734,-24.69301 -3.48397,-2.11762 0.66016,-1.57845 24.69301,10.32734 -3.08373,7.37331 -1.96766,-0.82293 1.27045,-4.98149 q -2.29513,-1.31556 -6.87912,-3.23271 l -4.4975,-1.88099 -4.44925,10.63832 7.58953,3.17416 2.00869,-2.9198 1.92441,0.80484 -3.7258,8.90851 -1.92441,-0.80484 0.70427,-3.56698 -7.58953,-3.17416 -4.67534,11.17888 5.47052,2.28793 q 5.57863,2.33315 7.45313,2.71065 l 3.4752,-4.84695 1.96766,0.82294 -3.79299,7.91503 -26.09848,-10.91515 z m 33.27952,4.26003 1.99698,0.51573 -0.23884,5.14271 q 0.66594,1.35809 2.40144,2.60511 1.73551,1.24701 3.80057,1.78032 6.51288,1.68198 7.89596,-3.67356 0.43369,-1.67928 -0.51554,-3.15895 -0.92653,-1.47381 -3.34719,-3.06721 -3.56913,-2.30152 -5.08868,-3.54117 -1.49099,-1.25649 -2.38972,-2.6505 -0.89873,-1.39401 -1.20369,-3.11881 -0.29911,-1.74749 0.28695,-4.01678 1.03732,-4.01666 4.29964,-5.40114 3.29088,-1.40132 8.55565,-0.0417 3.81241,0.98458 8.18977,3.15592 l -1.86951,7.23906 -2.01967,-0.52159 0.0571,-4.43923 q -1.881,-2.27705 -4.96724,-3.07409 -2.79123,-0.72085 -4.55855,-0.0638 -1.76146,0.63439 -2.31236,2.76753 -0.39265,1.52043 0.57415,2.93202 0.97267,1.3889 3.41091,2.91422 4.75714,3.04404 6.35785,4.81299 1.62927,1.75212 2.16989,3.87667 0.54062,2.12455 -0.10991,4.64346 -2.50245,9.6899 -13.91701,6.74204 -2.60969,-0.67396 -5.21563,-1.83108 -2.58911,-1.12858 -4.35317,-2.35876 z m 28.13129,16.63718 0.31531,-1.68164 5.0233,0.29804 4.90237,-26.14594 -1.17484,-0.22028 q -5.27526,-0.98911 -7.504,-0.93009 l -1.69747,5.61936 -2.09628,-0.39305 1.61973,-8.63852 30.01599,5.62801 -1.61973,8.63852 -2.11932,-0.39737 0.45353,-5.8526 q -1.83425,-0.77315 -7.47808,-1.83137 l -1.12877,-0.21165 -4.89374,26.09987 4.79007,1.54197 -0.31531,1.68164 z m 26.68993,5.299 q -1.59925,-0.24024 -2.56781,-1.52337 -0.94539,-1.27964 -0.70167,-2.90206 0.24024,-1.59924 1.51989,-2.54464 1.28312,-0.96856 2.90554,-0.72484 1.59925,0.24025 2.54464,1.51989 0.96856,1.28312 0.72484,2.90554 -0.24024,1.59925 -1.52337,2.56781 -1.27964,0.9454 -2.90206,0.70167 z m 32.74338,-25.82179 -3.94179,-1.04143 0.18488,-1.70092 14.88887,1.61838 -0.18489,1.70091 -3.60749,0.22085 -2.05146,18.8732 q -0.54958,5.05616 -3.64447,7.50167 -3.09235,2.42221 -8.26501,1.85996 -1.74752,-0.18995 -3.42564,-0.58454 -1.65736,-0.36875 -2.62635,-0.78056 l 0.76993,-7.08328 2.07373,0.22541 0.24566,4.24672 q 0.38445,0.58403 1.16703,0.97558 0.78259,0.39154 1.7612,0.49792 1.60772,0.17475 2.7778,-0.82969 1.19338,-1.00191 1.43145,-3.19214 z m 19.16995,29.38736 -0.13151,1.70587 -9.53421,-0.73505 0.13152,-1.70587 2.38546,-0.45078 13.40221,-28.39757 6.77677,0.52247 8.84426,30.11269 2.33491,0.8147 -0.13151,1.70587 -13.95079,-1.07555 0.13151,-1.70588 3.67071,-0.35169 -2.36597,-8.33935 -12.0346,-0.92783 -3.49943,7.88715 z m 6.91775,-24.78376 -6.23272,13.45916 10.18852,0.7855 z m 45.92087,0.54633 -4.18557,-0.80636 0.0802,-1.70906 11.16741,0.52379 -0.0802,1.70905 -4.05537,0.41984 -1.36383,29.07741 -2.73917,-0.12848 -18.17779,-26.14599 -1.07393,22.8967 4.18447,0.82977 -0.0802,1.70906 -11.16741,-0.52378 0.0802,-1.70906 4.05647,-0.44325 1.25401,-26.73623 -3.99827,-0.79758 0.0802,-1.70906 10.746,0.50402 14.44047,20.78533 z m 25.91921,26.99074 q 3.51476,0.078 5.47983,-1.84764 1.96508,-1.92562 2.04984,-5.745 l 0.41025,-18.48763 -4.20419,-0.70282 0.038,-1.71052 10.68487,0.23711 -0.038,1.71051 -3.57514,0.53019 -0.4061,18.30019 q -0.12063,5.43616 -3.32496,8.27202 -3.20433,2.83586 -9.03883,2.70638 -6.30313,-0.13987 -9.61231,-3.14371 -3.28522,-3.02675 -3.16198,-8.58007 l 0.40193,-18.11273 -3.5481,-0.68826 0.038,-1.71052 14.97287,0.33226 -0.038,1.71052 -4.04377,0.51979 -0.40922,18.44077 q -0.0837,3.77251 1.76954,5.82976 1.87668,2.05776 5.55547,2.1394 z m 24.99412,1.4806 -0.002,1.71094 -9.56249,-0.0128 0.002,-1.71094 2.34459,-0.62967 11.21893,-29.32877 6.79687,0.009 11.09355,29.35861 2.38978,0.63601 -0.002,1.71094 -13.99218,-0.0187 0.002,-1.71094 3.63366,-0.62795 -2.98912,-8.13682 -12.0703,-0.0161 -2.89369,8.12895 z m 5.02594,-25.23548 -5.19827,13.89149 10.21874,0.0137 z m 31.62882,13.44735 0.19622,10.967 4.04193,0.56059 0.0306,1.71067 -15.16164,0.27127 -0.0306,-1.71066 3.71465,-0.69938 -0.47882,-26.76134 -4.04151,-0.53716 -0.0306,-1.71066 15.02104,-0.26877 q 6.93639,-0.1241 10.39587,1.94715 3.45948,2.07126 3.5404,6.59397 0.12076,6.74892 -6.17197,8.7837 l 8.59724,11.47303 3.40922,0.57192 0.0306,1.71066 -10.17025,0.18197 -9.00238,-13.15356 z m 9.88704,-9.45963 q -0.0629,-3.51507 -1.5401,-4.84823 -1.47763,-1.35659 -5.3442,-1.28741 l -3.28073,0.0587 0.23187,12.95886 3.39789,-0.0608 q 3.6088,-0.0646 5.10516,-1.59158 1.49636,-1.52701 1.43011,-5.22954 z m 31.92471,9.212 0.39172,10.0236 5.01309,0.43739 0.0668,1.70963 -17.37736,0.67911 -0.0668,-1.70964 4.96367,-0.82727 -0.38623,-9.88308 -10.21418,-16.48871 -3.56016,-0.47071 -0.0668,-1.70964 16.15954,-0.63151 0.0668,1.70963 -4.19173,0.77365 7.68077,12.88177 6.41784,-13.43274 -3.86461,-0.45881 -0.0668,-1.70963 10.67934,-0.41735 0.0668,1.70963 -3.30179,0.73888 z m 39.82149,7.52598 5.4869,0.17949 0.14086,2.0107 -17.62867,1.23498 -0.14086,-2.0107 5.3849,-0.94112 -1.65593,-23.63738 -5.27634,2.15525 -0.13922,-1.98732 8.4741,-5.80953 3.31998,-0.23258 z m 28.73385,-15.78463 q 1.49604,16.24375 -8.773,17.18952 -4.94781,0.45569 -7.851,-3.46646 -2.90319,-3.92215 -3.63401,-11.85732 -0.71578,-7.77179 1.4265,-12.11155 2.14012,-4.3631 7.27464,-4.83598 4.94781,-0.45569 7.89123,3.39214 2.94127,3.8245 3.66564,11.68965 z m -6.83824,0.6298 q -0.67064,-7.28169 -1.77982,-10.38052 -1.11134,-3.12218 -2.86174,-2.96096 -1.72707,0.15906 -2.19018,3.30855 -0.43977,3.14735 0.25021,10.63908 0.70073,7.60842 1.73775,10.69037 1.03702,3.08194 2.74075,2.92503 1.72706,-0.15906 2.24729,-3.45504 0.54142,-3.32146 -0.14426,-10.76651 z m 19.93939,11.33892 q 0.40303,3.63397 -1.74318,6.39518 -2.14363,2.78451 -6.64493,4.50995 l -0.23768,-2.14311 q 1.41848,-0.60536 2.38665,-1.44375 0.96817,-0.83839 1.42907,-1.78559 0.48678,-0.92649 0.39894,-1.71851 -0.0568,-0.51249 -0.44759,-0.84645 -0.39076,-0.33396 -1.50361,-0.80007 -1.87373,-0.73544 -2.09075,-2.6922 -0.16792,-1.51415 0.7925,-2.42243 0.96042,-0.90827 2.56775,-1.08653 1.98005,-0.2196 3.42664,0.91693 1.44401,1.11324 1.66619,3.11658 z m 29.5125,-4.05726 5.48419,-0.24874 0.29716,1.9936 -17.47877,2.60533 -0.29716,-1.9936 5.29515,-1.35799 -3.49335,-23.43639 -5.0923,2.55997 -0.2937,-1.97042 7.99548,-6.45239 3.29176,-0.49066 z m 5.49673,-20.30469 q -0.88402,-4.69881 1.33421,-7.7395 2.21823,-3.04069 7.00917,-3.94204 5.41285,-1.01837 8.61548,2.31413 3.22566,3.32817 4.75104,11.43592 0.97936,5.20555 0.1769,9.05307 -0.77941,3.84319 -3.17805,6.17851 -2.39863,2.33532 -6.24521,3.059 -3.82354,0.71936 -7.34972,0.35727 l -1.32171,-7.02519 2.00391,-0.37701 1.83113,4.28214 q 0.9145,0.42417 2.08077,0.53863 1.18931,0.11013 2.22581,-0.0849 2.48761,-0.46801 3.34093,-3.53809 0.87202,-3.09745 0.097,-8.48453 -2.23514,1.30291 -4.60758,1.74926 -4.16905,0.78435 -7.05557,-1.24824 -2.86348,-2.03693 -3.70851,-6.52845 z m 6.78916,-1.1819 q 1.23937,6.58756 4.83258,5.91154 1.75054,-0.32935 3.377,-1.06462 l -0.0607,-0.32247 q -1.25237,-6.65665 -2.69122,-9.86786 -1.41582,-3.21554 -3.41973,-2.83853 -3.45501,0.65002 -2.03797,8.18194 z m 40.88894,13.36713 -19.36881,4.66155 -1.03651,-4.30671 q 1.45512,-2.56803 2.71822,-4.63182 2.77939,-4.47779 3.97204,-6.93443 1.18717,-2.47943 1.42995,-4.87622 0.26558,-2.40227 -0.41446,-5.22784 -0.59778,-2.48376 -2.17292,-3.71982 -1.57514,-1.23606 -3.58039,-0.75345 -1.41278,0.34002 -2.1846,0.83916 -0.77182,0.49915 -1.33562,1.26161 l 0.0841,4.65647 -1.98246,0.47713 -1.67267,-6.94999 q 1.72423,-0.8489 3.39022,-1.53914 1.68329,-0.71851 3.73411,-1.21209 5.03589,-1.212 8.20101,0.21995 3.18791,1.42647 4.10925,5.25466 0.57584,2.39262 0.24994,4.54423 -0.33139,2.12883 -1.61897,4.39136 -1.26479,2.25705 -5.38823,7.66099 -1.57577,2.06671 -3.36636,4.64316 l 14.99374,-3.60859 z m 20.70622,-15.3735 q 1.31505,4.08249 -0.8816,7.27703 -2.19665,3.19455 -7.39457,4.8689 -4.14942,1.3366 -8.54166,1.76648 l -2.60316,-7.16409 2.0524,-0.66111 2.70505,4.42269 q 2.29297,0.46794 4.41229,-0.21473 2.69935,-0.86951 3.66302,-3.07593 0.95648,-2.22873 -0.0424,-5.32963 -0.86951,-2.69935 -2.5564,-3.73188 -1.67176,-1.06202 -4.4509,-0.36379 l -2.63811,0.67742 -0.86951,-2.69935 2.44108,-0.98331 q 1.94236,-0.77341 2.45535,-2.39143 0.52811,-1.64752 -0.33422,-4.32456 -0.80483,-2.49858 -2.40248,-3.55984 -1.57534,-1.06846 -3.65005,-0.40016 -1.20467,0.38805 -1.86331,1.01881 -0.64352,0.60126 -1.19855,1.24789 l 0.43481,4.63689 -1.94085,0.62518 -2.19174,-6.80414 q 2.08865,-1.31301 3.682,-2.02324 1.58617,-0.73255 3.19239,-1.24994 10.06122,-3.2409 12.43261,4.12096 0.9773,3.03398 -0.0253,5.42531 -1.00259,2.39132 -3.84824,3.80042 7.83497,-1.51422 9.96203,5.08915 z"
       id="text22"
       transform="translate(28.613227,313.84521)"
       aria-label="EST. JANUARY 10, 1923" /><text
       xml:space="preserve"
       style="font-style:normal;font-variant:normal;font-weight:normal;font-stretch:normal;font-size:48px;font-family:'Liberation Serif';-inkscape-font-specification:'Liberation Serif';display:none;fill:#ffffff;fill-opacity:1"
       id="text22-5"
       transform="translate(28.527407,313.05201)"><textPath
         xlink:href="#path23"
         id="textPath23-3"
         style="font-style:normal;font-variant:normal;font-weight:bold;font-stretch:normal;font-size:48px;font-family:'Liberation Serif';-inkscape-font-specification:'Liberation Serif Bold';fill:#ffffff;fill-opacity:1">EST. JANUARY 10, 1923</textPath></text><path
       style="display:none;fill:none;fill-opacity:1;stroke:#000000;stroke-width:0.777168;stroke-opacity:1"
       d="m 219.80104,343.0981 c 0,0 47.68061,35.72727 257.6582,35.34154 209.97759,-0.38573 267.09191,-35.85373 267.09191,-35.85373"
       id="path23"
       sodipodi:nodetypes="czc" /></g></svg>
