<?xml version="1.0" encoding="UTF-8" standalone="no"?>
<!-- Created with Inkscape (http://www.inkscape.org/) -->

<svg
   version="1.1"
   id="svg1"
   width="262.53223"
   height="96.262978"
   viewBox="0 0 262.53222 96.262978"
   xmlns="http://www.w3.org/2000/svg"
   xmlns:svg="http://www.w3.org/2000/svg">
  <defs
     id="defs1" />
  <g
     id="g1"
     transform="translate(-23.334519,-23.869167)">
    <g
       id="g71">
      <path
         style="display:inline;fill:#f1b218"
         d="M 45.86726,97.467508 23.334518,74.933333 H 35.66726 48.000002 V 72 69.066667 H 35.668183 23.336365 l 8.731818,-8.734826 8.731818,-8.734827 v -0.261001 -0.261001 l -2.99565,-3.004173 -1.296487,-2.386295 4.561919,-0.617877 h 6.261082 l 10.601236,-10.59875 9.841222,-9.072554 0.02822,5.786286 -0.01606,7.203373 2.2155,-2.507261 1.443148,-1.588906 1.465915,1.588906 1.465914,1.588906 0.01202,-6.79875 0.01202,-6.79875 10.601236,10.59875 10.601235,10.59875 h 6.065429 6.06544 v 0.204764 0.204765 l -2.8,2.790471 -2.9236,2.222018 -0.83776,0.810696 0.76167,0.635471 8.93151,8.396989 8.73181,8.734826 H 107.26515 94.933336 V 72 l -0.305078,3.452106 12.454952,-0.03901 10.7734,0.05604 -20.790532,21.998375 -22.532742,22.534169 -0.07144,-6.58702 -0.07144,-6.58701 -1.461893,1.44373 -1.461893,1.44373 -1.461893,-1.44373 -2.042474,-2.27343 -0.203513,7.05798 0.03479,5.94108 z M 92.933336,93.333333 105.46454,80.8 h -5.2656 -5.265604 v 2.50337 2.503371 l -7.333333,7.468921 -7.333334,7.468918 v 2.56105 2.56104 h 0.06773 0.06773 z m -20.889421,5.466108 0.08942,-1.733893 -0.761864,5.59e-4 -0.761864,5.6e-4 0.161864,0.42181 0.161864,0.42181 v 1.311523 1.31152 h 0.510579 0.51058 z m 2.841301,-3.132774 -0.08521,-0.6 -3.4,-0.07463 -3.4,-0.07463 v 0.674634 0.674634 h 3.485214 3.485214 z m -6.885214,-1.753816 v -0.753815 l -0.751951,0.110363 -0.751951,0.110363 -0.85406,-0.718644 -0.85406,-0.718644 -0.300604,-0.561684 -0.300604,-0.561684 1.927738,-1.752878 1.927737,-1.752878 -0.08779,-0.856363 -0.08779,-0.856362 -2.177352,1.866354 -2.177352,1.866354 H 63.006133 62.5003 L 61.965476,88.6 l -0.534824,-0.733333 -0.188038,-0.504234 -0.188039,-0.504234 0.160887,-0.50691 0.160887,-0.50691 0.48753,0.154735 0.487529,0.154736 0.290964,-1.356717 0.290963,-1.356718 v -0.253541 -0.253541 h -0.392866 -0.392866 l -1.207134,0.586471 -1.207134,0.586471 v 0.184999 0.184999 l 0.38635,0.148256 0.38635,0.148256 -0.413255,0.828388 -0.413254,0.828388 0.16513,0.88022 0.16513,0.88022 0.820865,1.23928 0.820864,1.239279 -0.278551,0.799053 -0.278552,0.799054 h 1.020143 1.020143 l 0.365985,0.444459 0.365986,0.44446 1.04001,0.75554 1.04001,0.755541 h 1.026657 1.026656 z m 2.133334,-7.646184 V 78.133333 H 69.466669 68.800002 V 86.266667 94.4 h 0.666667 0.666667 z M 72.203913,86.2 l 0.07058,-8.066667 h -0.80391 -0.80391 v 7.955556 7.955555 l 0.189026,0.189027 0.189027,0.189026 0.544307,-0.07792 0.544307,-0.07792 z m 1.929423,0.06667 V 78.133333 H 73.466669 72.800002 V 86.266667 94.4 h 0.666667 0.666667 z m 8,6.246468 V 92.22627 l -2.466667,-2.335199 -2.466666,-2.335198 -1.133334,-1.008967 -1.133333,-1.008966 0.01849,1.164363 0.01849,1.164364 3.114839,2.454213 3.11484,2.454212 0.466666,0.01245 0.466667,0.01245 z m -4.4,-12.078818 2.133333,-1.873514 0.585177,-0.51296 0.585177,-0.512959 0.789839,0.632558 L 82.6167,78.8 l 0.133353,0.466667 0.133353,0.466666 h 0.529768 0.529768 L 84.095704,79.335242 84.248466,78.93715 83.777403,78.468575 83.306341,78 l -0.479503,-0.764142 -0.479504,-0.764142 0.425851,-0.42585 0.42585,-0.425851 1.059437,0.07649 1.059437,0.07649 0.67438,-0.67438 0.674381,-0.674381 v -0.776158 -0.776159 l -0.552689,-0.702629 -0.552688,-0.702629 h -1.16129 -1.161291 l -0.573747,0.729401 -0.573747,0.729401 0.108268,0.737677 0.108268,0.737678 -0.490003,0.443447 -0.490003,0.443446 -0.614393,-0.577192 -0.614393,-0.577192 H 79.813917 79.528873 L 79.389403,73.6 79.249933,73.066667 h -0.433334 -0.433335 l -0.171679,0.447388 -0.171679,0.447388 0.580048,0.385138 0.580049,0.385137 v 0.334823 0.334822 l 0.4,0.33197 0.4,0.331971 v 0.195591 0.195591 l -2.533334,2.196351 -2.533333,2.196351 v 0.924477 0.924477 l 0.333333,-0.195156 0.333333,-0.195156 z m 6.053333,-6.08765 -0.32,-0.32 v -0.447348 -0.447348 l 0.387204,-0.321351 0.387203,-0.32135 0.54613,0.173335 0.54613,0.173335 v 0.595363 0.595364 l -0.32,0.32 -0.32,0.32 h -0.293333 -0.293334 z m -17.300341,4.670651 -1.552993,-1.396526 -0.266666,-0.002 -0.266667,-0.002 -0.453494,0.62432 -0.453495,0.624319 2.186828,1.739876 2.186828,1.739875 0.08633,-0.965653 0.08633,-0.965652 z m -6.314935,0.555421 0.57139,-0.153313 0.152117,-0.760583 0.152117,-0.760583 0.843886,0.242024 0.843887,0.242023 0.481213,-0.257537 0.481213,-0.257537 0.173424,-0.546413 0.173425,-0.546413 -0.263359,-0.320537 -0.263359,-0.320537 -0.09201,-0.515613 -0.09201,-0.515613 0.661997,-0.161974 0.661996,-0.161973 0.07454,-0.971362 0.07454,-0.971362 -0.285966,-0.176737 -0.285966,-0.176736 -0.754615,0.312572 -0.754616,0.312572 -0.149221,0.746107 -0.149221,0.746107 -0.450976,0.173056 -0.450976,0.173055 L 60.894578,74.532461 60.264304,74.119489 58.827696,72.659744 57.391089,71.2 h -0.398208 -0.398207 l -0.45339,0.691961 -0.453391,0.691961 0.602538,0.641372 0.602538,0.641373 0.420183,0.0029 0.420183,0.0029 1.466667,1.300136 1.466667,1.300135 L 60.158672,77.03641 59.650675,77.6 h -0.492003 -0.492003 v 1.066667 1.066666 l 0.466666,-0.0036 0.466667,-0.0036 z M 74.933336,76.666667 V 76 h -3.466667 -3.466667 v 0.666667 0.666666 h 3.466667 3.466667 z m -2.717433,-1.933334 -0.08987,-0.466666 H 71.466669 70.807306 L 70.717435,74.733333 70.627563,75.2 h 0.839106 0.839106 z M 72.266669,72.4 v -1.2 l 0.333333,0.0094 0.333334,0.0094 1.733333,0.381264 1.733334,0.381264 0.252311,0.0094 L 76.904625,72 76.032598,71.100297 75.160571,70.200593 73.71362,69.468503 72.266669,68.736412 v -1.381539 -1.38154 l 0.258809,-0.258809 0.258809,-0.258809 -0.642177,-0.794524 -0.642178,-0.794524 -0.728628,0.718057 -0.728628,0.718057 0.327453,0.394558 0.327454,0.394557 -0.08212,1.209434 -0.08212,1.209433 -1.084101,-0.486968 -1.0841,-0.486968 -0.950416,-0.834476 -0.950416,-0.834476 -0.264064,0.332729 -0.264065,0.332729 -0.330805,1.026378 -0.330805,1.026377 0.106176,1.667468 0.106176,1.667468 0.480403,0.733187 0.480402,0.733186 0.709474,-0.679552 0.709474,-0.679553 0.991435,-0.414146 L 69.849539,71.2 h 0.408565 0.408565 v 1.2 1.2 h 0.8 0.8 z M 47.99952,60.866667 47.999039,58.533333 46.59952,56.98382 45.200001,55.434306 41.336784,59.317153 37.473566,63.2 h 5.263218 5.263218 z M 62.770395,45.056466 c 0.584591,-1.324374 -0.127701,-2.638705 -0.161322,-3.958904 l -0.07573,-2.973738 -3.462819,3.471422 -4.17481,4.015757 3.776438,0.42821 c 1.367582,-0.455151 2.580914,0.418487 4.098243,-0.982747 z"
         id="path73" />
      <path
         style="display:inline;fill:#d94239;fill-opacity:1"
         d="m 36.628864,80.565553 26.102199,26.019317 0.467238,-5.87788 -14.637026,-14.907849 0.141562,-5.315057 z"
         id="path75" />
      <path
         style="display:inline;fill:#d94239;fill-opacity:1"
         d="m 80.390141,37.712409 8.065951,7.984702 -7.507091,-0.05728 -1.283877,-1.772467 0.217029,-6.691309 z"
         id="path76" />
      <path
         style="display:inline;fill:#d94239;fill-opacity:1"
         d="m 98.011053,54.899629 8.182697,8.751624 -11.882991,-0.112906 0.137793,-5.417498 z"
         id="path77" />
      <path
         style="display:inline;fill:#ffffff;fill-opacity:1"
         d="m 53.69766,64.253751 18.271885,-1.571836 16.276497,5.35279 -3.342013,22.174238 -2.713668,3.092407 -10.63783,10.37853 -19.452796,-19.074731 z"
         id="path78" />
      <path
         style="display:inline;fill:#ffffff;fill-opacity:1"
         d="M 80.107602,106.50056 106.44381,80.499672 94.440302,80.467898 94.172755,85.896813 79.81666,100.4146 Z"
         id="path79" />
      <path
         style="display:inline;fill:#ffffff;fill-opacity:1"
         d="m 63.114734,37.107278 0.11098,6.968709 -1.415067,1.656922 -7.172431,0.01192 z"
         id="path80" />
      <path
         style="display:inline;fill:#ffffff;fill-opacity:1"
         d="m 45.241739,55.103999 3.145353,3.348557 -0.0035,5.313652 -11.561978,-0.190872 z"
         id="path81" />
      <path
         style="display:inline;fill:#ffffff"
         d="M 194.13334,99.942847 V 98.33794 l -1.09612,0.990275 -1.09611,0.990275 -0.97055,0.40655 -0.97055,0.40655 -1.61545,8.7e-4 -1.61545,8.7e-4 -0.78455,-0.40799 -0.78455,-0.408 -0.58224,-0.625336 -0.58224,-0.625337 -0.28443,-0.750694 -0.28443,-0.750693 v -4.924967 -4.924967 l -0.93333,-0.55068 -0.93333,-0.55068 v -0.201978 -0.201979 l 2.86666,-1.267591 2.86667,-1.267592 0.33333,-0.13262 0.33334,-0.13262 v 6.30844 6.308439 l 0.40066,0.774799 0.40066,0.774798 0.93267,0.17497 0.93267,0.17497 0.86667,-0.163787 0.86667,-0.163786 0.86666,-0.528638 0.86667,-0.528639 v -4.412913 -4.412913 l -0.93333,-0.55068 -0.93334,-0.55068 v -0.201978 -0.201979 l 2.86667,-1.267591 2.86667,-1.267592 0.33333,-0.13262 0.33333,-0.13262 v 6.567359 6.567359 l 1.20118,0.846665 1.20117,0.846665 -0.20117,0.186848 -0.20118,0.186847 -3.26666,1.468201 -3.26667,1.4682 z m -54.04371,1.107883 -1.6437,-0.21338 -1.5563,-0.73563 -1.55629,-0.735625 -1.34972,-1.349714 -1.34971,-1.349714 -0.70733,-1.496474 -0.70733,-1.496475 -0.26977,-1.170192 -0.26977,-1.170193 -0.007,-2.277307 -0.007,-2.277307 0.40832,-1.567638 0.40832,-1.567638 0.82502,-1.547909 0.82503,-1.547909 1.3887,-1.313376 1.3887,-1.313376 1.31129,-0.660602 1.31129,-0.660603 1.41312,-0.299834 L 141.35959,76 h 1.40456 1.40457 l 1.58231,0.289011 1.58231,0.289011 1.6,0.774135 1.6,0.774136 0.66569,0.520885 0.66569,0.520884 -1.59015,3.215969 L 148.68441,85.6 h -0.17368 -0.17369 l -1.55656,-3.464846 -1.55655,-3.464846 -0.9453,-0.19594 -0.94529,-0.195941 -1.39843,0.02872 -1.39843,0.02872 -1.47045,0.719426 -1.47046,0.719426 -0.68987,0.904469 -0.68987,0.90447 -0.50791,1.631925 -0.50792,1.631926 v 1.563116 1.563116 l 0.29984,1.413125 0.29983,1.413126 0.61873,1.228652 0.61873,1.228652 0.65938,0.783628 0.65938,0.783628 1.41875,0.772183 1.41876,0.772183 2.13663,0.108055 2.13664,0.108054 1.56727,-0.591041 1.56727,-0.59104 1.24657,-1.23481 1.24656,-1.234811 0.41025,-0.653955 0.41025,-0.653955 -0.1897,1.587288 -0.1897,1.587289 -0.44004,1.046106 -0.44004,1.046106 -0.90532,1.104826 -0.90533,1.104826 -1.57199,0.837863 -1.57199,0.837861 -1.1837,0.15847 -1.18369,0.15847 -0.8,0.0848 -0.8,0.0848 z m 20.80659,0.0112 -1.37045,-0.19652 -1.38124,-0.75176 -1.38125,-0.751771 -0.78,-0.888374 -0.78,-0.888374 -0.60031,-1.125919 -0.60031,-1.125919 -0.001,-2.8 -10e-4,-2.8 0.65401,-1.329115 0.65402,-1.329115 1.15372,-1.121287 1.15372,-1.121288 1.5256,-0.575177 1.52559,-0.575178 2.26667,0.105159 2.26667,0.105159 1.41836,0.772795 1.41836,0.772795 0.82134,0.935458 0.82134,0.935458 0.68786,1.478835 0.68786,1.478835 -0.004,2.266666 -0.004,2.266667 -0.55199,1.213548 -0.55198,1.213548 -0.89388,1.01807 -0.89388,1.018071 -0.94461,0.594109 -0.94462,0.594114 -0.93333,0.28372 -0.93333,0.28373 -1.06667,0.11978 -1.06667,0.11979 z m 3.52226,-2.412657 0.63271,-0.594406 0.33686,-0.960787 0.33685,-0.960787 0.004,-3.466666 0.004,-3.466667 -0.21061,-0.99215 -0.21061,-0.99215 -0.67213,-0.798782 -0.67213,-0.798782 -0.87415,-0.163992 -0.87415,-0.163992 -0.95874,0.400584 -0.95873,0.400583 -0.48437,0.887674 -0.48438,0.887674 V 92.4 96.933333 l 0.54793,0.932736 0.54793,0.932736 0.65207,0.344377 0.65207,0.344376 1.02621,-0.121919 1.02621,-0.12192 z m 69.44819,-7.922005 V 80.121282 l -0.93492,-0.503491 -0.93493,-0.503492 0.11939,-0.119389 0.11939,-0.119389 3.12429,-1.43776 L 238.48419,76 h 0.0912 0.0912 v 4.974663 4.974664 l 0.46667,-0.41026 0.46667,-0.410261 1.2,-0.62315 1.2,-0.62315 h 1.86666 1.86667 l 1.11789,0.589619 1.11788,0.589619 0.7046,0.923771 0.70459,0.923771 0.37752,1.254405 0.37752,1.254405 v 1.93386 1.93386 l -0.49285,1.583545 -0.49286,1.583544 -0.84779,1.232219 -0.84778,1.232218 -0.87372,0.666412 -0.87371,0.666416 -1.05231,0.44021 -1.05231,0.4402 -2.06043,-0.009 -2.06042,-0.009 -1.50487,-0.81507 -1.50487,-0.815069 -1.12884,0.924999 -1.12883,0.92499 h -0.17254 -0.17254 z m 9.63723,7.717969 0.73557,-0.823244 0.4136,-1.39275 0.4136,-1.39275 -10e-4,-1.884933 -0.001,-1.884933 -0.27973,-1.007289 -0.27972,-1.00729 -0.79087,-0.900744 -0.79086,-0.900745 -1.26126,-0.294704 -1.26125,-0.294704 -0.8,0.22171 -0.8,0.22171 -0.0757,5.047694 -0.0757,5.047695 0.14563,0.592619 0.14562,0.59262 0.59677,0.563936 0.59677,0.563936 1.3175,-0.122295 1.31749,-0.122295 z m 13.62159,2.600603 -1.14119,-0.22075 -0.75927,-0.54065 -0.75927,-0.540643 -0.49613,-1.005252 -0.49613,-1.005252 -0.0942,-5.104316 -0.0942,-5.104316 -0.90924,-0.489658 -0.90925,-0.489658 v -0.149409 -0.14941 l 2.92216,-1.260696 2.92216,-1.260697 0.41117,-0.157783 0.41118,-0.157784 v 6.573985 6.573985 l 0.68597,0.685966 0.68596,0.685966 1.40443,-0.116465 1.40443,-0.116466 0.97627,-0.603371 0.97628,-0.603371 v -4.370288 -4.370289 l -1.06462,-0.607962 -1.06461,-0.607963 -0.002,-0.137995 -0.002,-0.137994 3,-1.294562 3,-1.294562 0.33334,-0.129307 0.33333,-0.129307 v 6.66364 6.663639 l 1.21329,0.789235 1.21329,0.789235 -3.30178,1.508989 -3.30177,1.508986 h -0.17818 -0.17818 V 99.866667 98.4 h -0.16163 -0.16162 l -0.48059,0.610978 -0.4806,0.610979 -1.29112,0.688703 -1.29111,0.6887 -1.06667,0.13363 -1.06666,0.13364 z m 18.87452,-0.21452 -1.46667,-0.47329 -0.86666,-0.452551 -0.86667,-0.452548 v -0.35336 -0.353359 l 0.24859,-0.773126 0.2486,-0.773126 0.43358,-1.561077 0.43359,-1.561078 0.76843,1.21169 0.76843,1.211689 1.1061,1.106094 1.10609,1.106095 0.9014,0.376627 0.90139,0.376627 h 0.6159 0.6159 l 0.59266,-0.415121 0.59267,-0.415121 v -0.663667 -0.663667 l -0.61563,-0.615634 -0.61563,-0.615633 -2.40954,-1.244475 -2.40953,-1.244474 -1.14287,-0.978252 -1.14286,-0.978251 -0.3653,-0.874288 -0.3653,-0.874287 v -1.166623 -1.166623 l 0.61952,-1.171529 0.61952,-1.17153 1.41093,-0.737079 1.41093,-0.73708 2.16955,0.0094 2.16955,0.0094 1.73333,0.590559 1.73333,0.590559 -0.069,1.2 -0.069,1.2 -0.33459,1.454917 -0.33458,1.454917 -0.88181,-1.374175 -0.8818,-1.374175 -1.01793,-0.919638 -1.01793,-0.919638 -0.84759,-0.18616 -0.84758,-0.186161 -0.78578,0.325481 -0.78578,0.32548 -0.17094,0.681098 -0.17095,0.681098 0.37835,0.674069 0.37834,0.67407 2.91615,1.543941 2.91615,1.543941 0.90259,0.867134 0.9026,0.867135 0.37725,0.72009 0.37725,0.720091 v 1.195883 1.195883 l -0.28364,0.750693 -0.28363,0.750693 -0.71637,0.76696 -0.71636,0.766962 -1.06667,0.49385 -1.06667,0.49385 -2.13333,-0.008 -2.13333,-0.008 z m -102.99089,-1.439745 1.39089,-1.408386 v -8.702936 -8.702937 l -1.34619,-0.777214 -1.34618,-0.777214 3.38509,-1.444797 3.38509,-1.444798 0.22776,-0.08889 0.22776,-0.08889 v 11.146395 11.146396 l 1.25664,1.275827 1.25664,1.275829 h -4.9142 -4.9142 z m 29.86666,0 1.39089,-1.408386 v -5.128414 -5.128413 l -1.2,-0.583005 -1.2,-0.583005 0.004,-0.146863 0.004,-0.146862 2.99567,-1.258005 2.99567,-1.258005 0.46667,-0.170526 0.46667,-0.170525 v 1.342409 1.342409 l 1.52237,-0.916726 1.52237,-0.916726 0.9443,-0.262332 0.94429,-0.262332 1.56,-0.0015 1.56,-0.0015 0.86381,0.866667 0.86381,0.866667 0.12664,0.384695 0.12665,0.384695 0.96712,-0.737662 0.96713,-0.737661 1.35195,-0.5137 1.35194,-0.513701 h 1.61039 1.61038 l 0.78224,0.404514 0.78225,0.404514 0.47118,0.862153 0.47118,0.862153 0.0823,6 0.0823,6 1.24102,1.266666 1.24102,1.266672 h -4.74815 -4.74814 l 1.0915,-1.30368 1.0915,-1.303675 v -4.770323 -4.770324 l -0.40976,-0.585019 -0.40977,-0.585018 -0.99023,-0.264134 -0.99024,-0.264134 -1.33333,0.192934 -1.33334,0.192933 -0.0721,5.362026 -0.0721,5.362025 1.23012,1.368192 1.23012,1.368197 h -4.72787 -4.72787 l 1.25326,-1.339833 1.25325,-1.339827 -0.0834,-4.788116 -0.0834,-4.788115 -0.71082,-0.710152 -0.71082,-0.710152 h -1.42577 -1.42577 l -0.59674,0.189398 -0.59674,0.189399 v 5.398805 5.398806 l 0.82295,0.783224 0.82294,0.783225 0.2531,0.466668 0.2531,0.46667 h -4.7336 -4.73361 z m -14.20911,-23.091338 -0.8,-0.208519 -1.00725,-0.479685 -1.00725,-0.479685 -0.52608,-0.668803 -0.52608,-0.668803 v -1.143578 -1.143577 l 0.70021,-0.832154 0.70021,-0.832153 1.0225,-0.52164 1.0225,-0.52164 h 0.42636 0.42636 l -0.14859,-0.240428 -0.1486,-0.240428 -1.60095,-0.185811 -1.60096,-0.18581 -0.11963,-0.19357 -0.11964,-0.193569 1.96968,-1.956532 1.96968,-1.956532 -1.36567,-0.82366 L 186.5678,62 l -0.61723,-1.175276 -0.61723,-1.175275 0.006,-1.091391 0.006,-1.091391 0.4923,-1.066667 0.4923,-1.066667 0.6385,-0.586974 0.6385,-0.586974 1.33001,-0.607788 1.33001,-0.607787 4.93334,-0.0939 4.93333,-0.0939 1.06472,0.08866 1.06472,0.08866 -1.79805,1.280141 -1.79806,1.28014 v 0.144465 0.144465 l 0.53334,0.678024 0.53333,0.678023 v 1.305936 1.305936 l -0.36374,0.870553 -0.36374,0.870553 -0.86845,0.730754 -0.86846,0.730755 -0.9678,0.432711 -0.96781,0.432711 -2.59935,0.02408 -2.59935,0.02408 -6.5e-4,0.733333 -6.5e-4,0.733333 h 0.22549 0.22549 l 3.4707,0.642297 3.47069,0.642296 1.07027,0.546011 1.07027,0.54601 0.70021,0.832153 0.70021,0.832153 v 1.323497 1.323497 l -0.53087,1.040595 -0.53087,1.040594 -0.86913,0.655895 -0.86913,0.655896 -1.06666,0.464592 -1.06667,0.464592 -3.33333,0.08267 -3.33334,0.08267 z m 6.96893,-1.801667 0.9162,-0.434764 0.39077,-0.557904 0.39077,-0.557905 v -0.758196 -0.758196 l -0.27457,-0.513043 -0.27457,-0.513042 -0.81052,-0.419132 -0.81051,-0.419133 -1.99498,-0.381703 -1.99499,-0.381703 -0.77645,0.574055 -0.77645,0.574056 -0.41015,0.864321 -0.41014,0.864321 v 0.439608 0.439609 l 0.38615,0.746745 0.38616,0.746746 0.88051,0.43394 0.88051,0.433939 1.69303,0.0061 1.69303,0.0061 z m -1.64201,-12.201249 0.63602,-0.636013 0.31554,-1.163987 0.31555,-1.163988 -0.15295,-1.659149 -0.15294,-1.659149 -0.42356,-0.819079 -0.42356,-0.819078 -0.63418,-0.28895 -0.63417,-0.28895 -0.65361,0.164046 -0.65361,0.164045 -0.45289,0.691186 -0.45288,0.691186 -0.29147,1.567305 -0.29147,1.567305 0.33976,1.518229 0.33977,1.518228 0.62641,0.626413 0.62641,0.626412 h 0.69091 0.69091 z m 46.11008,6.921399 -1.62966,-0.37013 -1.17034,-0.590407 -1.17033,-0.590407 -0.10108,-0.09052 -0.10107,-0.09052 0.62877,-2.410033 0.62878,-2.410033 h 0.14814 0.14814 l 0.51078,0.866666 0.51079,0.866667 1.17139,1.254035 1.17138,1.254035 1.17045,0.447001 1.17046,0.447001 0.796,-0.329715 0.796,-0.329715 0.15698,-0.494582 0.15697,-0.494581 -0.28502,-0.532567 -0.28502,-0.532566 -0.86309,-0.648419 -0.86308,-0.648418 -1.92053,-0.959325 -1.92053,-0.959325 -0.98586,-0.865597 -0.98586,-0.865596 -0.36028,-0.862268 -0.36028,-0.862268 V 57.333336 56.24954 l 0.36374,-0.870553 0.36374,-0.870553 0.84839,-0.713869 0.84838,-0.713868 1.12121,-0.304596 1.12121,-0.304596 2.15518,0.131943 2.15517,0.131943 1.24483,0.550645 1.24482,0.550644 v 0.401869 0.401869 l -0.27897,1.413126 -0.27897,1.413126 -0.12774,0.606496 -0.12774,0.606496 -1.25996,-1.664543 -1.25995,-1.664544 -0.9061,-0.608619 -0.90611,-0.60862 h -0.7246 -0.7246 l -0.70263,0.552688 -0.70263,0.552688 v 0.5261 0.5261 l 0.61563,0.615634 0.61564,0.615633 2.38436,1.23258 2.38437,1.23258 1.03313,0.853054 1.03313,0.853054 0.36687,0.878046 0.36687,0.878047 v 1.088474 1.088474 l -0.43216,0.853424 -0.43215,0.853424 -0.43451,0.495043 -0.43451,0.495042 -0.99672,0.508704 -0.99672,0.508703 -1.53661,0.124012 -1.53662,0.124012 z M 227.20908,68.883356 226.28482,68.4 l -0.54241,-0.933333 -0.5424,-0.933334 -0.0926,-5.787948 -0.0926,-5.787949 -1.61608,-0.07872 -1.61607,-0.07872 3.84201,-3.37994 3.84201,-3.37994 0.0767,2.37994 0.0767,2.37994 h 2.52333 2.52332 v 1.066667 1.066666 h -2.53333 -2.53333 v 5.075232 5.075232 l 0.37975,0.908887 0.37976,0.908887 0.88691,0.163759 0.88691,0.16376 1.13333,-0.402716 1.13334,-0.402716 v 0.204947 0.204946 l -0.73334,0.686115 -0.73333,0.686115 -0.90991,0.459651 -0.9099,0.459651 -1.4901,0.120815 -1.49009,0.120814 z m 35.71108,0.10372 -1.21319,-0.344136 -0.97555,-0.602927 -0.97556,-0.602927 -0.7193,-0.851876 -0.71931,-0.851877 -0.62268,-1.333333 -0.62268,-1.333333 -0.003,-2.019163 -0.003,-2.019163 0.4469,-1.314171 0.44691,-1.31417 1.48906,-1.490634 1.48906,-1.490634 1.43026,-0.475058 1.43027,-0.475057 2.03377,0.122032 2.03377,0.122032 1.35733,0.6932 1.35734,0.693201 0.84103,0.957873 0.84102,0.957874 0.6009,1.125919 0.6009,1.125919 5.4e-4,2.533333 5.4e-4,2.533333 -0.57291,1.239778 -0.57292,1.239777 -1.03814,1.038141 -1.03814,1.03814 -1.29205,0.607335 -1.29205,0.607336 -1.76336,0.113686 -1.76337,0.113686 z m 4.10715,-2.022262 0.49397,-0.430222 0.43936,-0.800629 0.43937,-0.80063 -0.001,-4 -10e-4,-4 -0.45055,-0.997284 -0.45055,-0.997285 -0.91841,-0.437958 -0.91841,-0.437959 -0.95144,0.178492 -0.95145,0.178493 -0.54398,0.691563 -0.54399,0.691564 -0.29243,1.086 -0.29243,1.086001 0.0915,3.479187 0.0915,3.479186 0.55658,1.066667 0.55659,1.066667 0.91008,0.311862 0.91008,0.311862 0.66667,-0.147678 0.66666,-0.147678 z m -134.15061,0.55936 1.25664,-1.275827 V 57.246083 48.243818 L 132.89685,46.921909 131.66036,45.6 h 4.9905 4.9905 l -1.22068,1.39542 -1.22068,1.39542 v 4.133563 4.133564 L 142.26667,53.6 145.33334,50.542033 V 48.071017 45.6 h 4.53333 4.53334 v 0.116496 0.116495 L 151,48.625962 l -3.4,2.79297 -1.84488,1.875793 -1.84489,1.875792 0.26869,0.348075 0.26869,0.348075 4.02478,5.221223 4.02478,5.221224 0.91691,0.699361 0.91691,0.699361 0.56784,-0.604438 0.56784,-0.604439 v -5.067042 -5.067042 l -1.08419,-0.609352 -1.0842,-0.609353 0.0958,-0.09585 0.0959,-0.09585 3.17809,-1.343903 3.17809,-1.343903 h 0.0769 0.0769 V 53.6 54.933333 h 0.17665 0.17665 l 1.22335,-0.774836 1.22335,-0.774835 1.27598,-0.425165 1.27599,-0.425164 h 1.5814 1.5814 l 0.93614,0.821938 0.93613,0.821938 0.27166,0.978062 0.27165,0.978062 0.001,5.057507 0.001,5.057507 1.25664,1.275827 1.25664,1.275826 h -4.61264 -4.61263 l 1.08933,-1.237544 1.08933,-1.237544 V 62.353891 58.38287 l -0.379,-0.907057 -0.37899,-0.907057 -0.87066,-0.450235 -0.87066,-0.450235 -1.65584,0.132915 -1.65585,0.132915 -0.2945,0.182013 -0.2945,0.182013 0.0114,4.984263 0.0114,4.984262 1.0537,1.2 1.0537,1.2 -4.68228,0.07289 -4.68227,0.07289 -4.5828,-0.07289 -4.5828,-0.07289 1.18529,-1.286187 1.18529,-1.286186 -0.3618,-0.580481 -0.3618,-0.58048 -2.90787,-3.8 -2.90787,-3.8 H 139.31562 139.2 v 4.371159 4.371159 l 1.22472,1.362175 1.22471,1.362174 h -5.01469 -5.01469 z m 43.06778,0.132399 1.12219,-1.143427 v -4.958349 -4.958349 l -1.2221,-0.794968 -1.2221,-0.794967 3.15543,-1.266656 3.15544,-1.266656 0.33333,-0.131797 0.33334,-0.131798 v 7.019371 7.01937 l 1.25664,1.275827 1.25664,1.275826 h -4.6455 -4.6455 z m 27.73334,0 1.12219,-1.143427 v -8.526955 -8.526955 l -1.06073,-0.655562 -1.06072,-0.655563 0.19406,-0.177476 0.19405,-0.177477 3.13334,-1.340585 3.13333,-1.340584 v 5.057576 5.057577 l 0.8686,-0.662515 0.8686,-0.662516 1.46474,-0.681784 1.46473,-0.681784 1.79072,-0.0026 1.79072,-0.0026 0.9109,0.799781 0.9109,0.79978 0.29838,1.184972 0.29838,1.184971 v 5.035431 5.035431 l 0.69115,0.646484 0.69115,0.646484 0.25157,0.466666 0.25156,0.466667 h -4.46603 -4.46602 l 1.28016,-1.299699 1.28015,-1.2997 -0.0903,-4.366967 -0.0903,-4.366967 -0.39984,-0.608044 -0.39985,-0.608044 -1.02289,-0.30769 -1.02289,-0.30769 -1.51044,0.3824 -1.51045,0.382401 -0.0729,4.914242 -0.0729,4.914241 0.75344,0.819092 0.75345,0.819092 0.35207,0.466666 0.35208,0.466667 h -4.48818 -4.48817 z m 72.29953,-0.09412 1.08933,-1.237544 V 60.62912 54.93333 h -1.2 -1.2 V 53.866667 52.8 h 1.21208 1.21208 l -0.19521,-1 -0.19521,-1 -3.7e-4,-1.333333 -3.7e-4,-1.333334 0.4437,-0.840921 0.4437,-0.840922 0.87313,-0.530883 0.87313,-0.530882 1.08675,-0.177098 1.08675,-0.177099 1.24681,0.313949 1.2468,0.313948 0.79978,0.9109 0.79978,0.9109 v 1.074918 1.074919 l -0.26445,0.494127 -0.26445,0.494127 -0.81305,0.178577 -0.81306,0.178577 -0.65377,-0.428365 -0.65376,-0.428365 -0.67322,-1.328537 -0.67323,-1.328536 h -0.53721 -0.53721 l -0.16697,0.435124 -0.16697,0.435124 1.10673,2.231543 1.10673,2.231542 h 2.00195 2.00194 v 1.066667 1.066666 h -2 -2 v 5.657507 5.657507 l 1.25664,1.275827 1.25664,1.275826 h -4.61264 -4.61263 z M 177.68393,50.8224 l -0.84941,-0.382145 -0.44655,-0.863528 -0.44655,-0.863529 0.14616,-1.089934 0.14616,-1.089934 0.82067,-0.733333 0.82068,-0.733333 h 0.94237 0.94236 l 0.80777,0.417711 0.80776,0.417711 0.40059,0.958731 0.40058,0.95873 -0.15824,0.843515 -0.15825,0.843516 -0.75505,0.723387 -0.75505,0.723386 -0.9083,0.125597 -0.90829,0.125597 z"
         id="path71" />
      <path
         style="display:inline;fill:#112764"
         d="m 74.400002,113.47518 v -6.65696 l -1.467052,1.44883 -1.467052,1.44883 -1.594839,-1.5782 -1.594839,-1.5782 -0.07144,6.58777 -0.07144,6.58777 L 45.73393,97.334178 23.334525,74.933333 H 35.667263 48.000002 V 72 69.066667 H 35.668183 23.336365 l 8.731818,-8.734826 8.731818,-8.734827 v -0.269938 -0.269939 l -2.8,-2.79047 -2.8,-2.790471 v -0.204765 -0.204764 h 6.065417 6.065417 l 10.467917,-10.465401 10.467917,-10.465401 0.01258,6.798734 0.01258,6.798734 1.565147,-1.703028 1.565147,-1.703028 1.479215,1.569695 1.479216,1.569695 0.0097,-6.79875 0.0097,-6.79875 10.601236,10.59875 10.601235,10.59875 h 6.065425 6.06544 v 0.204547 0.204548 l -2.93488,2.925774 -2.93487,2.925773 8.86671,8.869679 8.86672,8.869679 H 107.26518 94.933336 v 2.93067 2.93067 l 12.267344,0.06933 12.26734,0.06933 -22.534011,22.532741 -22.534007,22.532742 z m -8.861519,-9.9384 -1.938481,-1.9528 -0.133333,3.21025 -0.133334,3.21024 L 49.334287,94.002236 35.335239,80 h 6.332381 6.332382 V 78 76 H 36.867309 25.734616 l 20.79936,20.800929 20.79936,20.800931 0.07181,-6.05614 0.07182,-6.05615 z M 96.332691,96.867316 116.8,76.401299 V 76.200649 76 H 105.86667 94.933336 v 2 2 h 6.332384 6.33238 l -13.999049,14.001742 -13.999048,14.001738 -0.07529,-3.25317 -0.07529,-3.25317 -1.991379,1.97809 -1.99138,1.97809 v 5.94001 5.94 h 0.199355 0.199355 z M 82.748812,96.835499 93.86667,85.670998 V 71.882426 58.093854 l 5.8,-5.913594 5.8,-5.913593 -12.4,-0.08663 L 80.666669,46.093405 76.136792,41.046702 71.606915,36 h -0.148652 -0.148651 l -4.594186,5.066667 -4.594186,5.066666 H 49.860621 37.600001 v 0.164268 0.164268 l 5.733334,5.853792 5.733333,5.853792 V 71.950217 85.73098 L 60.198811,96.86549 71.330955,108 h 0.149999 0.15 z M 61.255569,94.978536 51.200002,84.890406 V 73.378536 61.866667 H 71.466669 91.733336 V 73.295622 84.724578 L 81.707801,94.895622 71.682267,105.06667 H 71.496701 71.311135 Z M 72.003644,99.4 l 0.0036,-1.133333 0.160794,-0.6 0.160793,-0.6 h -0.865993 -0.865993 l 0.16529,1 0.16529,1 0.0029,0.733333 0.0029,0.73333 h 0.533333 0.533333 z m 2.880738,-3.733333 0.08438,-0.733334 h -3.484379 -3.48438 v 0.622223 0.622222 l 0.185566,0.185566 0.185567,0.185566 L 71.58557,96.47445 74.800002,96.4 Z m -6.88438,-1.784917 v -0.722714 l -0.751951,0.110363 -0.751951,0.110363 -0.85406,-0.718644 -0.85406,-0.718644 -0.300604,-0.561684 -0.300604,-0.561684 1.927738,-1.752878 1.927737,-1.752878 -0.08779,-0.84611 -0.08779,-0.84611 -2.226272,1.856102 -2.226272,1.856101 -0.307062,-0.0041 -0.307061,-0.0041 -0.282124,-0.195917 -0.282124,-0.195917 -0.451209,-0.659335 -0.45121,-0.659335 v -0.891968 -0.891968 l 0.511827,0.162447 0.511826,0.162447 0.13536,-0.47781 0.13536,-0.477811 0.176253,-1.133333 0.176253,-1.133334 h -0.472579 -0.47258 l -1.15086,0.557122 -1.15086,0.557122 v 0.214348 0.214348 l 0.38635,0.148256 0.38635,0.148256 -0.413255,0.828388 -0.413254,0.828388 0.16513,0.88022 0.16513,0.88022 0.789711,1.192246 0.789711,1.192245 -0.242655,0.846087 -0.242655,0.846088 h 0.940466 0.940465 l 1.215185,1.069648 1.215185,1.069649 0.825735,0.217625 0.825735,0.217626 0.466667,-0.118376 L 68,94.604429 Z m 2.133334,-7.632796 v -8.151046 l -0.733334,0.08438 -0.733333,0.08438 -0.07086,7.730087 -0.07086,7.730087 0.129158,0.336579 L 68.783264,94.4 H 69.4583 70.133336 Z M 72.203913,86.2 l 0.07058,-8.066667 h -0.80391 -0.80391 v 8.151046 8.151046 l 0.733333,-0.08438 0.733334,-0.08438 z m 1.929423,0.06667 V 78.133333 H 73.466669 72.800002 V 86.266667 94.4 h 0.666667 0.666667 z m 8,6.217238 V 92.16781 L 80.466669,90.603196 78.800003,89.038582 76.903189,87.319291 75.006375,85.6 h -0.169853 -0.169853 v 0.931276 0.931276 l 0.733333,0.641978 0.733334,0.641977 2.533333,2.014127 2.533334,2.014127 0.466666,0.01262 0.466667,0.01262 z m -4.603496,-11.865646 2.336829,-2.048407 0.585177,-0.517484 0.585177,-0.517484 0.789839,0.632558 L 82.6167,78.8 l 0.133353,0.466667 0.133353,0.466666 h 0.529768 0.529768 L 84.117814,79.277626 84.292685,78.821918 83.795832,78.410959 83.298979,78 l -0.475822,-0.764142 -0.475823,-0.764142 0.425851,-0.42585 0.42585,-0.425851 1.059437,0.07649 1.059437,0.07649 0.67438,-0.67438 0.674381,-0.674381 v -0.79725 -0.797251 L 86.034561,72.09487 85.402452,71.36 h -1.002449 -1.002449 l -0.6561,0.762761 -0.656099,0.762761 0.1112,0.757651 0.111199,0.757651 -0.475065,0.429928 -0.475065,0.429927 L 80.559058,74.63034 79.760493,74 79.595611,73.533333 79.430729,73.066667 h -0.523732 -0.523733 l -0.150089,0.391125 -0.150089,0.391126 0.958458,1.169672 0.958459,1.169672 v 0.129484 0.129483 l -2.666667,2.326491 -2.666667,2.326491 v 0.783228 0.783228 h 0.263171 0.26317 z m 6.403496,-6.239619 -0.466667,-0.271808 v -0.487431 -0.48743 l 0.422353,-0.350522 0.422353,-0.350522 0.444314,0.279786 0.444314,0.279785 0.08869,0.450895 0.08869,0.450895 -0.321339,0.387189 -0.321339,0.38719 -0.167348,-0.0081 -0.167348,-0.0081 z m -15.933334,6.97139 V 80.300066 L 66.216782,78.787251 64.433561,77.274437 64.225375,77.837219 64.017188,78.4 h -0.297482 -0.297482 l 0.08989,0.269667 0.08989,0.269667 2.132334,1.720093 2.132333,1.720094 0.06667,0.01024 0.06667,0.01024 z m -7.042508,-2.45985 0.02794,-0.35685 0.04062,-0.314718 0.04062,-0.314719 0.83406,0.239206 0.834061,0.239205 0.481213,-0.257537 0.481213,-0.257537 0.165133,-0.520289 0.165133,-0.520289 -0.423065,-0.818118 -0.423066,-0.818119 0.409326,-0.128542 0.409325,-0.128543 0.35584,-0.108018 0.355841,-0.108018 0.03565,-0.948173 0.03565,-0.948172 -0.263366,-0.162769 -0.263366,-0.16277 -0.938445,0.309715 -0.938445,0.309715 0.147428,0.464504 0.147428,0.464503 -0.53027,0.479888 -0.53027,0.479888 L 60.938986,74.561557 60.264304,74.119489 58.827696,72.659744 57.391089,71.2 h -0.398208 -0.398207 l -0.45339,0.691961 -0.453391,0.691961 0.602538,0.641372 0.602538,0.641373 h 0.318682 0.318682 l 1.368168,1.089351 1.368168,1.089351 V 76.502685 76.96 l -0.32,0.32 -0.32,0.32 h -0.48 -0.48 v 1.044444 1.044445 l 0.333333,0.11283 0.333333,0.112831 0.798109,-0.333759 0.798109,-0.333759 z M 74.933336,76.666667 V 76 h -3.466667 -3.466667 v 0.666667 0.666666 h 3.466667 3.466667 z m -4.84812,-1.933334 0.08521,-0.6 h -0.669475 -0.669476 l -0.172701,0.279437 -0.172702,0.279436 0.155772,0.405934 0.155771,0.405933 0.601192,-0.08537 0.601192,-0.08537 z M 72.133336,74.8 v -0.533333 l -0.733334,-0.08438 -0.733333,-0.08438 v 0.506602 0.506601 l 0.189026,0.189027 0.189027,0.189026 0.544307,-0.07792 0.544307,-0.07792 z m 2,0 v -0.666667 h -0.666667 -0.666667 v 0.488889 0.488889 l 0.177778,0.177778 0.177778,0.177778 h 0.488889 0.488889 z m -1.866667,-2.4 v -1.2 h 0.109875 0.109875 l 2.07155,0.396353 2.07155,0.396353 0.09229,-0.09229 0.09229,-0.09229 -1.10774,-1.000776 -1.10774,-1.000776 -1.165974,-0.515766 -1.165975,-0.515766 v -1.400855 -1.400855 l 0.284453,-0.284452 0.284452,-0.284453 -0.669286,-0.76888 -0.669285,-0.768881 -0.738803,0.729697 -0.738804,0.729697 0.323637,0.323636 0.323636,0.323636 V 67.12 68.266667 H 70.231479 69.796288 L 68.831479,67.690891 67.86667,67.115116 67.157196,66.463859 66.447722,65.812603 65.957196,66.56124 65.46667,67.309878 V 69.6 71.890122 l 0.490526,0.748638 0.490526,0.748637 0.709474,-0.679552 0.709474,-0.679553 0.991435,-0.414146 L 69.849539,71.2 h 0.408565 0.408565 v 1.2 1.2 h 0.8 0.8 z m 12.133334,-12.492888 -0.8,-0.366491 -0.708349,-0.715023 -0.708348,-0.715022 -0.477453,-0.988622 -0.477452,-0.988621 -0.0068,-1.874001 -0.0068,-1.874002 0.820881,-1.459332 0.820881,-1.459331 1.253047,-0.780781 1.253047,-0.780781 1.651998,-0.0178 1.651999,-0.0178 1.245661,0.479279 1.245662,0.479279 0.302407,0.364379 0.302408,0.364379 -0.856243,1.688254 -0.856244,1.688254 -0.743874,-1.6 -0.743874,-1.6 -0.320108,-0.363638 -0.320107,-0.363638 -1.193616,0.134538 -1.193615,0.134538 -0.785902,0.785902 -0.785902,0.785902 -0.24437,1.043198 -0.24437,1.043198 0.28217,1.402667 0.282169,1.402666 0.641808,0.762745 0.641807,0.762745 0.808488,0.334886 0.808487,0.334887 1.379466,-0.132549 1.379466,-0.13255 1.056837,-1.132984 1.056837,-1.132985 -0.153194,1.142149 -0.153195,1.14215 -0.502673,0.673276 -0.502674,0.673277 -0.730385,0.545311 -0.730385,0.545311 -1.919805,0.07464 -1.919804,0.07463 z M 51.200002,59.774663 v -0.225336 l 0.533333,-0.48266 0.533333,-0.48266 v -4.384172 -4.384171 l -0.551491,-0.774499 -0.551492,-0.774498 h 2.464642 2.464642 l -0.579817,0.617187 -0.579817,0.617187 v 2.107037 2.107037 l 1.466667,-1.448448 1.466667,-1.448448 v -1.275776 -1.275776 l 2.333333,0.0052 2.333333,0.0052 -1.2,0.99168 -1.2,0.99168 -1.4,1.308449 -1.4,1.30845 v 0.202379 0.20238 l 2.040834,2.625605 2.040834,2.625605 0.825833,0.722496 0.825833,0.722496 -3.007984,0.01084 L 57.050702,60 l 0.569759,-0.77064 0.569759,-0.770641 -1.561776,-2.076892 -1.561776,-2.076893 -0.07805,2.218224 -0.07805,2.218224 0.591205,0.629309 L 56.092969,60 h -2.446483 -2.446484 z m 15.218956,-2.641744 -0.914377,-0.466252 -0.536574,-0.731839 -0.536573,-0.731838 0.01951,-1.293622 0.01952,-1.293622 0.315121,-0.588809 0.315121,-0.588809 0.849648,-0.518067 0.849647,-0.518067 1.146576,-9.97e-4 1.146576,-9.97e-4 0.782244,0.404514 0.782243,0.404514 0.404514,0.782243 0.404514,0.782244 v 1.310613 1.310614 L 70.888561,56.129686 70.310455,56.864629 69.43046,57.232315 68.550465,57.6 67.9419,57.599586 67.333335,57.599171 Z m 2.511933,-0.863551 0.480215,-0.530631 0.122701,-1.276981 0.122702,-1.27698 L 69.241863,52.192388 68.827216,51.2 h -0.806759 -0.806759 l -0.436252,0.843619 -0.436252,0.843618 0.117667,1.418916 0.117668,1.418915 0.4864,0.537466 0.4864,0.537466 h 0.450673 0.450674 z m 3.694448,0.576301 0.44133,-0.487664 V 54.036287 51.714569 L 72.636,51.057284 72.20533,50.4 h 2.964003 2.964003 v 1.387453 1.387452 l -1.034548,-1.010208 -1.034547,-1.010209 -0.632119,0.08942 -0.63212,0.08942 -0.08289,1.002143 -0.08289,1.002144 0.429793,0.164927 0.429794,0.164927 0.653098,-0.613554 0.653099,-0.613554 V 54 55.559634 l -0.653099,-0.613554 -0.653098,-0.613554 -0.413569,0.158701 -0.413568,0.158701 v 0.749034 0.749035 l 0.415121,0.592668 0.415121,0.592668 H 73.84046 72.184009 Z M 55.34365,93.343653 48.000002,85.99649 V 83.398245 80.8 h -5.265603 -5.265603 l 12.53227,12.535501 12.532269,12.535499 0.07698,-2.59009 0.07698,-2.59009 z M 92.933336,93.333333 105.46454,80.8 h -5.2656 -5.265604 v 2.50337 2.503371 l -7.333333,7.468921 -7.333334,7.468918 v 2.56105 2.56104 h 0.06773 0.06773 z M 48.000002,66 V 64 H 41.669526 35.33905 L 39.939375,59.394034 44.5397,54.788068 43.131513,53.397373 41.723326,52.006678 33.729997,60.003339 25.736668,68 H 36.868335 48.000002 Z M 116.8,67.801667 v -0.198333 l -7.79498,-7.798342 -7.79498,-7.798342 -1.408201,1.390709 -1.408201,1.390709 4.600322,4.605966 L 107.59429,64 h -6.33048 -6.330474 v 2 2 H 105.86667 116.8 Z m -68.80048,-6.935 -4.81e-4,-2.333334 L 46.59952,56.98382 45.200001,55.434306 41.336784,59.317153 37.473566,63.2 h 5.263218 5.263218 z m 53.60293,-1.530879 -3.857314,-3.864212 -1.4059,1.388436 -1.4059,1.388436 V 60.724224 63.2 h 5.263214 5.26322 z m -42.871819,-18.73301 4.736038,-4.730555 v 3.552778 3.552777 L 63.68253,42.888889 63.898391,42.8 65.68253,40.845659 67.466669,38.891317 V 32.580421 26.269524 L 58.133335,35.6 48.800002,44.930476 v 0.201429 0.201428 h 2.597295 2.597296 z m 3.365326,4.103676 0.588923,-0.62688 -0.07577,-2.977731 -0.07577,-2.977731 -3.596295,3.604611 -3.596295,3.60461 h 3.083145 3.083145 z m 25.104046,0.423032 v -0.203848 l -3.466667,-3.458971 -3.466667,-3.458972 v 3.079203 3.079203 l 0.543722,0.583616 0.543721,0.583616 h 2.922945 2.922946 z m 6.933333,0.0053 v -0.198571 l -9.131884,-9.134762 -9.131884,-9.134762 h -0.201449 -0.20145 v 6.132227 6.132227 l 1.768716,1.934439 1.768716,1.93444 0.231284,0.08889 0.231284,0.08889 v -3.554617 -3.554616 l 4.732395,4.732394 4.732394,4.732394 h 2.600939 2.600939 z"
         id="path1" />
    </g>
  </g>
</svg>
